<?xml version="1.0" standalone="no"?>
<!DOCTYPE svg PUBLIC "-//W3C//DTD SVG 1.1//EN" "http://www.w3.org/Graphics/SVG/1.1/DTD/svg11.dtd" >
<svg xmlns="http://www.w3.org/2000/svg">
<metadata>Generated by IcoMoon</metadata>
<defs>
<font id="InShop-Icons01" horiz-adv-x="1024">
<font-face units-per-em="1024" ascent="960" descent="-64" />
<missing-glyph horiz-adv-x="1024" />
<glyph unicode="&#x20;" horiz-adv-x="512" d="" />
<glyph unicode="&#x31;" glyph-name="close, Close" d="M1024 50.822h-238.155l-273.845 273.845-273.845-273.845h-238.155l392.942 392.911-392.942 392.911h238.155l273.845-273.845 273.845 273.845h238.155l-392.911-392.911z" />
<glyph unicode="&#x33;" glyph-name="Arrow-Right, chevron-up" d="M512 470.080l-354.461-354.461-157.539 157.539 511.882 498.689 512.118-498.689-157.539-157.539z" />
<glyph unicode="&#x34;" glyph-name="Arrow-Down, chevron-down" d="M157.539 771.846l354.462-354.46 354.46 354.46 157.539-157.539-512.079-498.688-511.921 498.688z" />
<glyph unicode="&#x35;" glyph-name="Arrow-Right1, chevron-right" d="M183.886 89.272l354.46 354.462-354.46 354.46 157.539 157.539 498.688-512.079-498.688-511.921z" />
<glyph unicode="&#x36;" glyph-name="Arrow-Left, chevron-left" d="M485.673 443.734l354.46-354.462-157.539-157.539-498.728 511.921 498.728 512.079 157.539-157.539z" />
<glyph unicode="&#x3e;" glyph-name="Check" d="M155.711 667.982l284.731-281.875 427.848 423.564 155.711-154.173-583.558-577.701-440.442 436.013z" />
<glyph unicode="&#x40;" glyph-name="Dot" d="M512 136.537c-169.658 0-307.196 137.538-307.196 307.196s137.538 307.196 307.196 307.196 307.196-137.538 307.196-307.196-137.538-307.196-307.196-307.196z" />
<glyph unicode="&#x42;" glyph-name="Home, home" d="M884.361 397.193v-418.919h-279.279v372.36h-186.163v-372.36h-279.279v418.919h-139.64l512 512 512-512z" />
<glyph unicode="&#x43;" glyph-name="Minimize" d="M950.045 82.089h-876.090v202.176h876.090v-202.176z" />
<glyph unicode="&#x45;" glyph-name="WorkOrder" d="M767.999 845.995h-14.299c-19.017 17.701-53.065 26.697-77.458 50.871-29.584 29.468-68.559 49.527-112.046 55.298l-0.996 0.108c-115.785 14.409-155.319-17.225-233.106-69.705-23.312-12.415-42.861-24.539-61.575-37.766l1.781 1.194h-197.157v-914.286h877.714v914.286zM511.999 882.566c40.396 0 73.143-32.747 73.143-73.143s-32.747-73.143-73.143-73.143c-40.396 0-73.143 32.747-73.143 73.143v0c0 40.396 32.747 73.143 73.143 73.143v0zM693.905 663.138c10.751 0.010 20.994 2.173 30.325 6.081l-0.519-0.193v-504.686h-417.646v502.821c7.157-2.466 15.406-3.932 23.984-4.022h0.043zM877.713 4.852h-731.429v768h109.714v-36.571h-27.794v-657.006h573.33v657.006h-33.536v36.571h109.714zM396.689 598.333h227.913v-63.707h-227.913v63.707zM396.689 452.047h227.913v-63.707h-227.913v63.707zM396.689 305.762h227.913v-63.707h-227.913v63.707z" />
<glyph unicode="&#x46;" glyph-name="ET" d="M540.789 506.029v-37.282l-36.129 22.112-60.514-36.993 0.257 37.441 60.258 36.801zM631.16 720.849h36.161v-50.754c31.105-8.064 54.209-36.096 54.209-69.729v-36.129h-144.58v36.129c0 33.633 23.072 61.666 54.209 69.729v50.754zM540.789 335.302l0.002-34.148-44.321-27.073 44.321-35.137v-48.193l-108.42 86.019v39.586l36.129-22.080zM667.292 169.247l-0.002-74.881h-36.161v74.851c-31.105 8.064-54.209 36.096-54.209 69.729v289.128h-36.129v18.081h216.839v-18.081h-36.129v-289.097c0-33.633-23.072-61.666-54.209-69.729zM414.288 926.135c-51.361-2.528-54.021-36.644-54.021-36.676h-36.322s24.482 66.274 90.34 66.274c98.786 0 62.434-102.403 162.63-102.403 93.956 0 90.34-84.354 90.34-84.354h-32.16s4.352 53.282-58.722 52.995c-118.627-0.544-87.362 107.844-162.084 104.164zM754.296 386.597l253.029-154.628-113.283-62.275-0.32-0.864-30.337-18.209 0.161 0.416-358.889-219.304-487.982 298.185 209.061 127.748-0.192-37.41-147.876-90.34 284.935-174.118 200.103 122.276 14.208-28.577-183.813-112.324 111.556-68.195 328.394 200.71-75.427 45.154v38.178l105.923-64.705 68.067 41.601-110.692 67.618-63.297-39.841v29.44l31.009 30.178-31.009 17.985zM753.877 255.33l3.744 2.367v-4.672zM287.782 744.944l0.003-36.158h-18.081v36.129c0 33.633 23.072 61.666 54.209 69.729v50.754l31.777-0.768-7.68-47.425c23.424-7.265 66.274-38.626 66.274-72.259v-36.129h-18.081v36.129c0 29.921-24.257 54.209-54.211 54.209s-54.211-24.257-54.211-54.211zM269.738 383.53l-0.034 289.128h-36.129v18.081h216.839v-18.081h-36.129v-289.128c0-33.633-23.072-61.666-54.209-69.729v-74.851h-36.129v74.851c-31.137 8.064-54.209 36.096-54.209 69.729zM287.784 672.659l-0.002-289.128c0-29.954 24.257-54.211 54.211-54.211s54.211 24.257 54.211 54.211v289.128h-108.42z" />
<glyph unicode="&#x48;" glyph-name="RotateCW90" d="M1019.21 257.778c-3.164-10.043-8.159-18.703-14.648-26.013l0.064 0.074c-6.633-7.272-14.832-12.995-24.072-16.654l-0.439-0.153c-9.675-3.776-20.875-5.964-32.586-5.964-0.653 0-1.304 0.006-1.954 0.020l0.097-0.002c-0.597-0.012-1.301-0.021-2.005-0.021-11.183 0-21.912 1.943-31.869 5.508l0.659-0.206c-9.171 3.396-16.955 8.649-23.219 15.344l-0.031 0.034c-6.215 6.874-10.963 15.199-13.671 24.398l-0.113 0.446c-2.854 9.564-4.496 20.553-4.496 31.926 0 0.605 0.005 1.208 0.012 1.814l-0.001-0.091c-0.005 0.358-0.006 0.78-0.006 1.203 0 11.498 1.787 22.578 5.1 32.978l-0.212-0.768c3.178 10.046 8.196 18.709 14.708 26.007l-0.061-0.070c6.649 7.158 14.817 12.809 24.001 16.451l0.445 0.155c9.611 3.757 20.738 5.934 32.374 5.934 0.705 0 1.407-0.008 2.108-0.024l-0.104 0.002c0.581 0.012 1.269 0.020 1.952 0.020 11.194 0 21.942-1.904 31.939-5.407l-0.677 0.206c9.186-3.323 16.981-8.564 23.216-15.275l0.034-0.036c6.158-6.89 10.87-15.211 13.57-24.393l0.114-0.448c2.894-9.658 4.56-20.755 4.56-32.241 0-0.54-0.004-1.080-0.011-1.619l0.001 0.082c0.004-0.335 0.005-0.73 0.005-1.126 0-11.449-1.751-22.489-5.002-32.867l0.21 0.775zM980.814 308.931c-1.024 5.811-3.007 11-5.794 15.652l0.115-0.207c-2.616 4.317-6.222 7.8-10.518 10.19l-0.143 0.074c-4.497 2.336-9.82 3.706-15.462 3.706-0.402 0-0.802-0.007-1.202-0.021l0.058 0.002c-0.214 0.005-0.466 0.007-0.718 0.007-5.431 0-10.576-1.228-15.171-3.418l0.213 0.092c-4.535-2.251-8.268-5.524-10.997-9.533l-0.064-0.098c-2.969-4.35-5.261-9.434-6.579-14.898l-0.064-0.315c-1.378-5.786-2.168-12.429-2.168-19.256 0-0.353 0.002-0.707 0.006-1.059l-0.001 0.054c-0.002-0.196-0.002-0.429-0.002-0.661 0-6.65 0.642-13.149 1.865-19.44l-0.104 0.638c1.099-5.826 3.085-11.017 5.837-15.706l-0.121 0.228c2.559-4.324 6.168-7.784 10.485-10.094l0.143-0.070c4.526-2.273 9.862-3.605 15.51-3.605 0.386 0 0.77 0.006 1.153 0.018l-0.055-0.002c0.229-0.005 0.499-0.008 0.769-0.008 5.482 0 10.678 1.228 15.329 3.423l-0.219-0.093c4.516 2.212 8.236 5.442 10.966 9.404l0.062 0.097c2.92 4.329 5.139 9.401 6.355 14.851l0.055 0.295c1.334 5.773 2.099 12.403 2.099 19.211 0 0.366-0.002 0.737-0.006 1.102l0.001-0.056c0.004 0.326 0.005 0.711 0.005 1.097 0 6.504-0.594 12.867-1.732 19.042l0.098-0.642zM573.706 662.989c-262.571-31.751-464.887-250.44-470.733-517.55l-0.010-0.589h-102.963c6.446 324.24 254.392 588.602 571.009 620.881l2.697 0.223v142.82l321.379-204.665-321.379-197.491zM338.552 312.418c10.713 10.96 23.739 19.61 38.294 25.162l0.732 0.245c15.303 5.842 33 9.222 51.488 9.222 0.955 0 1.908-0.009 2.859-0.027l-0.143 0.002c0.736 0.012 1.602 0.021 2.471 0.021 14.505 0 28.514-2.119 41.738-6.061l-1.032 0.264c12.229-3.732 22.846-9.41 32.080-16.757l-0.195 0.148c8.881-7.199 16.297-15.792 22.015-25.501l0.239-0.439c5.743-9.762 10.534-21.046 13.788-32.964l0.228-0.981c3.245-11.603 5.769-25.347 7.069-39.446l0.070-0.943q2.092-21.722 2.059-45.371 0-21.656-2.192-44.906c-1.623-16.953-4.575-32.424-8.819-47.352l0.448 1.848c-4.534-16.16-10.343-30.208-17.568-43.364l0.529 1.053c-7.454-13.643-16.813-25.236-27.885-34.915l-0.147-0.126c-11.807-10.088-25.695-18.163-40.881-23.473l-0.903-0.275c-16.17-5.547-34.807-8.746-54.188-8.746-1.36 0-2.718 0.012-4.071 0.047l0.202-0.004c-8.299 0.003-16.452 0.607-24.425 1.769l0.91-0.109c-8.36 1.143-15.574 2.583-22.628 4.413l1.339-0.295c-6.466 1.597-11.915 3.383-17.185 5.516l0.844-0.302c-3.756 1.367-6.997 3.281-9.809 5.683l0.044-0.036c-2.172 2.234-3.724 5.084-4.367 8.264l-0.018 0.106c-0.903 4.084-1.42 8.775-1.42 13.586 0 0.63 0.009 1.258 0.026 1.884l-0.002-0.092c0 6.045 0 10.894 0.431 14.581 0.12 3.081 0.706 5.987 1.691 8.702l-0.064-0.2c0.539 1.672 1.603 3.048 2.994 3.969l0.028 0.017c1.187 0.608 2.587 0.965 4.071 0.965 0.074 0 0.148-0.001 0.223-0.003h-0.011c3.39-0.239 6.544-0.95 9.498-2.069l-0.228 0.076c4.021-1.262 8.935-2.724 14.681-4.384 5.124-1.529 11.753-3.067 18.503-4.249l1.16-0.169c7.022-1.207 15.111-1.897 23.359-1.897 0.382 0 0.764 0.002 1.145 0.005h-0.058c0.797-0.027 1.736-0.043 2.676-0.043 13.218 0 25.723 3.055 36.846 8.499l-0.496-0.219c10.471 5.371 19.144 12.895 25.695 22.040l0.145 0.213c6.478 9.256 11.491 20.085 14.406 31.745l0.142 0.672c3.009 11.537 4.894 24.853 5.211 38.556l0.004 0.206c-8.762-5.447-18.851-10.155-29.509-13.608l-0.981-0.275c-11.592-3.762-24.931-5.931-38.776-5.931-0.766 0-1.529 0.006-2.291 0.020l0.114-0.002c-0.993-0.025-2.162-0.039-3.334-0.039-16.015 0-31.393 2.727-45.694 7.742l0.969-0.295c-12.756 4.586-23.558 11.945-32.090 21.388l-0.061 0.070c-8.235 9.456-14.458 20.89-17.864 33.482l-0.137 0.596c-3.595 12.955-5.66 27.836-5.66 43.192 0 0.754 0.005 1.507 0.012 2.259l-0.001-0.114c-0.005 0.459-0.008 1.001-0.008 1.544 0 17.015 2.923 33.353 8.294 48.53l-0.315-1.018c5.343 15.098 13.418 28.040 23.718 38.836l-0.039-0.039zM380.471 204.141c1.514-7.020 4.378-13.2 8.328-18.529l-0.091 0.129c3.789-4.823 8.762-8.554 14.481-10.781l0.23-0.079c6.102-2.262 13.152-3.572 20.506-3.572 0.52 0 1.040 0.006 1.558 0.020l-0.076-0.002c0.188-0.002 0.411-0.002 0.633-0.002 10.541 0 20.671 1.764 30.109 5.012l-0.65-0.194c9.593 3.21 17.922 7.536 25.42 12.944l-0.276-0.19c0.016 1.172 0.025 2.557 0.025 3.944 0 15.966-1.217 31.651-3.563 46.958l0.216-1.712c-1.689 11.798-5.186 22.453-10.227 32.178l0.263-0.557c-3.785 7.132-9.475 12.822-16.395 16.504l-0.213 0.104c-6.81 3.125-14.774 4.948-23.164 4.948-8.010 0-15.632-1.661-22.541-4.657l0.366 0.142c-6.252-3.049-11.455-7.378-15.433-12.678l-0.078-0.109c-4.114-5.537-7.284-12.053-9.113-19.108l-0.085-0.39c-1.923-7.144-3.027-15.346-3.027-23.807 0-0.33 0.002-0.659 0.005-0.988v0.050c0-0.109-0.001-0.238-0.001-0.366 0-8.9 1.017-17.564 2.941-25.88l-0.148 0.771zM619.279 296.904c10.017 15.787 23.667 28.437 39.819 36.988l0.569 0.275c16.562 8.19 36.059 12.979 56.675 12.979 1.374 0 2.743-0.021 4.107-0.064l-0.2 0.005c1.378 0.052 2.994 0.082 4.617 0.082 20.346 0 39.604-4.649 56.777-12.944l-0.781 0.339c15.977-8.355 28.91-20.626 37.825-35.571l0.239-0.431c9.568-16.56 16.427-35.931 19.395-56.56l0.103-0.867c3.498-21.882 5.496-47.111 5.496-72.806 0-1.401-0.006-2.801-0.018-4.199l0.002 0.214c0.010-1.051 0.012-2.288 0.012-3.527 0-25.967-2.496-51.348-7.26-75.925l0.403 2.497c-4.071-22.070-11.888-41.728-22.832-59.231l0.412 0.707c-10.017-15.738-23.668-28.337-39.816-36.828l-0.571-0.274c-16.645-8.23-36.242-13.044-56.961-13.044-1.366 0-2.727 0.021-4.084 0.063l0.199-0.005c-1.394-0.054-3.032-0.084-4.675-0.084-20.282 0-39.478 4.651-56.583 12.944l0.773-0.338c-15.91 8.366-28.784 20.622-37.658 35.538l-0.239 0.433c-9.586 16.559-16.496 35.918-19.554 56.534l-0.109 0.893c-3.604 21.926-5.663 47.194-5.663 72.944 0 1.364 0.005 2.727 0.017 4.090l-0.002-0.209c-0.009 0.972-0.012 2.12-0.012 3.27 0 26.007 2.556 51.417 7.431 75.992l-0.409-2.47c4.157 22.136 12.013 41.838 22.972 59.411l-0.42-0.724zM665.58 102.206c1.41-14.585 4.761-27.992 9.813-40.534l-0.347 0.974c3.328-8.618 9.093-15.679 16.447-20.527l0.16-0.099c6.644-3.734 14.585-5.933 23.037-5.933 0.495 0 0.988 0.007 1.479 0.023l-0.072-0.002c0.361-0.010 0.786-0.012 1.211-0.012 6.387 0 12.489 1.225 18.081 3.452l-0.33-0.116c5.707 2.406 10.535 5.901 14.413 10.256l0.035 0.039c4.279 4.907 7.761 10.644 10.165 16.915l0.131 0.389c2.682 6.845 4.986 14.963 6.517 23.35l0.125 0.833c1.746 8.971 3.027 19.642 3.566 30.507l0.022 0.548q0.93 17.337 0.964 38.196 0 25.309-1.361 44.672c-0.817 12.546-2.341 24.081-4.566 35.362l0.282-1.716c-1.732 9.176-4.202 17.281-7.441 24.984l0.3-0.802c-2.506 6.139-5.987 11.39-10.306 15.82l0.010-0.010c-3.752 3.734-8.362 6.606-13.508 8.301l-0.243 0.070c-4.895 1.583-10.528 2.495-16.373 2.495-0.234 0-0.468-0.002-0.701-0.005h0.035c-0.511 0.022-1.112 0.034-1.715 0.034-9.378 0-18.068-2.947-25.194-7.965l0.139 0.093c-7.515-6.043-13.252-14.008-16.495-23.154l-0.112-0.362c-4.327-11.412-7.4-24.648-8.627-38.414l-0.039-0.579c-1.572-15.325-2.468-33.115-2.468-51.114 0-1.168 0.004-2.336 0.011-3.503l-0.001 0.179c-0.023-1.815-0.035-3.961-0.035-6.109 0-19.876 1.086-39.504 3.2-58.819l-0.213 2.386z" />
<glyph unicode="&#x49;" glyph-name="CalendarMonth" d="M280.545 790.093c-19.492 0-33.367 4.907-33.367 24.399v105.931c0 19.492 15.819 35.31 35.31 35.31s35.31-15.819 35.31-35.31v-105.931c0-19.492-17.761-24.399-37.253-24.399zM704.268 790.093c-19.529 0-35.346 15.819-35.346 35.31l1.978 95.020c0 19.492 15.819 35.31 35.31 35.31s35.31 0 35.31-70.621l-1.942-59.709c0-19.492-15.819-35.31-35.31-35.31zM882.763 849.803c71.079 0 105.927-52.967 105.927-105.933v-812.137h-953.379v812.14c0 62.994 10.17 105.931 70.621 105.931h105.931l-1.942-24.399c0-39.017 31.637-70.621 70.621-70.621 39.017 0 70.621 31.603 70.621 70.621l1.942 24.399h282.484l-1.942-24.399c0-39.017 31.603-70.621 70.621-70.621s70.621 31.603 70.621 70.621l1.942 24.399h105.931zM918.070 2.351v670.897h-812.14v-670.897zM280.541 83.883v105.931zM35.772 345.393c0.009 274.764 0.447 418.608 1.306 428.397 1.505 17.155 5.759 35.135 10.549 44.587 4.317 8.52 13.899 18.647 21.617 22.848 13.507 7.352 15.446 7.544 81.403 8.058l60.566 0.473-1.102-14.891c-0.913-12.342-0.74-16.516 1.010-24.382 7.392-33.226 35.469-55.801 69.399-55.801 24.949 0 46.445 11.797 60.204 33.041 6.918 10.681 9.843 21.652 11.464 42.999l1.386 18.243 281.822 0.635-0.867-5.134c-1.873-11.086-0.996-31.358 1.722-39.833 5.977-18.632 19.938-34.961 36.69-42.91 38.079-18.071 82.403-0.803 97.492 37.983 2.825 7.261 3.846 12.889 5.286 29.13 0.982 11.071 1.792 20.27 1.8 20.442 0.049 0.988 111.153 0.095 119.931-0.964 27.38-3.302 50.996-15.652 66.81-34.938 7.949-9.693 16.421-26.747 20.344-40.948l3.35-12.126 0.66-828.568h-952.858zM918.649 337.588v335.923h-812.958v-671.845h812.958zM296.792 132.7c-17.884 1.935-42.51 7.524-64.049 14.537l-14.781 4.812v27.113c0 14.913 0.391 26.934 0.87 26.715s5.77-2.914 11.761-5.989c19.018-9.763 42.309-16.543 66.733-19.423 14.41-1.7 49.277-0.678 59.965 1.757 35.947 8.191 57.133 26.455 65.443 56.417 2.909 10.49 2.899 38.023-0.018 48.59-5.431 19.677-19.797 37.158-37.903 46.123-17.919 8.872-23.469 9.782-63.386 10.393l-35.068 0.537v47.058l35.648 0.509c31.782 0.453 36.628 0.776 44.685 2.976 32.316 8.825 49.466 30.603 49.466 62.818 0 33.156-18.255 56.421-51.172 65.215-8.581 2.293-12.408 2.574-34.573 2.543-18.7-0.027-27.674-0.544-35.937-2.073-14.884-2.753-35.871-8.096-50.955-12.972-6.845-2.213-12.788-4.023-13.205-4.023s-0.759 11.194-0.759 24.875v24.875l7.825 2.323c39.639 11.766 85.541 17.75 116.075 15.132 40.347-3.46 66.649-14.859 88.926-38.54 13.005-13.825 19.78-27.18 23.92-47.156 3.036-14.646 2.389-40.231-1.344-53.184-8.485-29.439-29.101-50.615-60.041-61.671-3.972-1.419-6.981-2.972-6.686-3.451s3.024-1.494 6.064-2.257c3.039-0.763 9.879-3.425 15.198-5.914 28.057-13.133 46.787-35.749 54.766-66.124 4.9-18.654 4.337-50.47-1.28-72.433-2.523-9.865-10.553-27.632-16.195-35.833-20.323-29.538-55.429-48.077-101.998-53.863-9.107-1.132-48.736-1.412-57.994-0.41zM636.521 133.538c-62.97 12.114-99.464 68.613-109.761 169.925-1.917 18.863-1.917 79.674 0 98.537 8.719 85.786 35.459 138.235 81.939 160.715 31.794 15.378 75.332 15.254 106.406-0.301 12.007-6.010 21.072-12.785 30.771-22.996 34.686-36.515 52.352-99.513 52.352-186.687 0-98.192-22.733-166.402-66.522-199.594-8.876-6.727-25.114-14.511-37.222-17.843-11.77-3.238-45.021-4.246-57.963-1.756zM682.6 179.509c32.243 10.811 51.164 45.309 59.402 108.305 4.375 33.458 4.396 95.749 0.042 129.837-4.636 36.298-12.682 61.815-25.654 81.357-12.933 19.483-28.658 28.794-50.887 30.131-16.95 1.019-29.907-2.838-43.127-12.84-21.546-16.301-35.161-49.836-41.698-102.705-2.995-24.219-2.995-97.504 0-121.722 5.262-42.555 14.235-70.153 29.209-89.842 9.847-12.947 24.447-22.291 38.806-24.836 9.242-1.638 25.408-0.534 33.908 2.316zM689.235 794.61c-8.554 4.328-13.274 9.15-16.864 17.229-2.137 4.809-2.353 8.366-2.197 36.215 0.095 16.985 0.577 42.121 1.070 55.858 1.012 28.142 2.186 32.637 10.687 40.893 7.611 7.392 14.64 10.010 26.647 9.925 19.715-0.139 25.721-6.832 30.469-33.96 1.647-9.41 1.638-64.718-0.014-89.308-1.206-17.944-2.517-21.833-10.025-29.744-6.617-6.971-13.060-9.877-23.277-10.499-7.889-0.48-9.498-0.149-16.496 3.392zM263.939 792.67c-6.842 1.84-11.71 5.827-14.174 11.611-2.691 6.316-2.488 120.011 0.229 127.984 9.615 28.217 50.053 30.247 63.536 3.189l3.206-6.433v-121.521l-2.839-4.213c-6.027-8.943-15.658-12.455-33.749-12.306-5.633 0.046-12.926 0.807-16.209 1.689z" />
<glyph unicode="&#x4a;" glyph-name="PCB" d="M213.627 685.883c25.298 0.088 46.795 16.264 54.801 38.826l0.126 0.408h199.778l78.82-78.467h200.092c8.323-23.053 30.015-39.234 55.484-39.234 32.502 0 58.85 26.348 58.85 58.85s-26.348 58.85-58.85 58.85c-25.471 0-47.161-16.181-55.355-38.824l-0.129-0.41h-160.858l-78.467 78.467h-239.326c-8.377 22.796-29.899 38.762-55.151 38.762-32.372 0-58.615-26.242-58.615-58.615s26.242-58.615 58.615-58.615c0.079 0 0.157 0 0.236 0h-0.012zM213.627 528.947c25.298 0.088 46.795 16.264 54.801 38.826l0.126 0.408h199.778l78.82-78.467h200.092c1.708-4.29 3.725-7.985 6.12-11.396l-0.117 0.175c1.44-2.47 2.866-4.571 4.417-6.569l-0.101 0.135c2.293-2.705 4.731-5.132 7.361-7.339l0.094-0.076c2.78-2.32 5.888-4.44 9.194-6.245l0.301-0.15c1.948-1.196 4.265-2.415 6.662-3.488l0.4-0.16c6.076-2.525 13.13-4.030 20.524-4.119h0.035c32.502 0 58.85 26.348 58.85 58.85s-26.348 58.85-58.85 58.85v0c-7.429-0.089-14.481-1.595-20.935-4.257l0.377 0.138c-2.797-1.234-5.115-2.453-7.342-3.807l0.28 0.158c-3.607-1.955-6.715-4.075-9.587-6.47l0.092 0.075c-2.722-2.283-5.162-4.71-7.382-7.327l-0.072-0.088c-1.416-1.844-2.854-3.944-4.177-6.119l-0.178-0.315c-2.235-3.221-4.235-6.903-5.824-10.796l-0.139-0.385h-160.858l-78.467 78.467h-239.326c-8.377 22.796-29.899 38.762-55.151 38.762-32.372 0-58.615-26.242-58.615-58.615s26.242-58.615 58.615-58.615c0.079 0 0.157 0 0.236 0h-0.012zM213.627 97.376c25.293 0.101 46.785 16.27 54.8 38.826l0.126 0.408h164.781c8.323-23.053 30.015-39.234 55.484-39.234 32.502 0 58.85 26.348 58.85 58.85s-26.348 58.85-58.85 58.85c-25.471 0-47.161-16.181-55.355-38.824l-0.129-0.41h-164.781c-8.377 22.796-29.899 38.762-55.151 38.762-32.372 0-58.615-26.242-58.615-58.615s26.242-58.615 58.615-58.615c0.079 0 0.157 0 0.236 0h-0.012zM213.627 293.506c32.502 0 58.85 26.348 58.85 58.85v0-19.617h160.858c8.323-23.053 30.015-39.234 55.484-39.234 32.502 0 58.85 26.348 58.85 58.85s-26.348 58.85-58.85 58.85c-25.471 0-47.161-16.181-55.355-38.824l-0.129-0.41h-160.858v-19.617c0 32.502-26.348 58.85-58.85 58.85s-58.85-26.348-58.85-58.85c0-32.502 26.348-58.85 58.85-58.85v0zM670.896 331.406h353.104v616.99h-1024v-1009.327h670.897zM78.467 17.536v852.392h867.066v-460.055h-353.104v-392.337z" />
<glyph unicode="&#x4b;" glyph-name="Array" d="M888.531 262.985c-16.116-0.141-29.765-10.546-34.738-24.99l-0.078-0.261h-126.676l-49.951 75.451h-126.951c-5.052 14.704-18.701 25.109-34.799 25.251h-0.017c-20.911 0-37.863-16.952-37.863-37.863s16.952-37.863 37.863-37.863v0c16.116 0.141 29.765 10.546 34.738 24.99l0.078 0.261h102.025l49.776-75.476h151.777c5.066-14.689 18.709-25.080 34.799-25.225h0.017c20.911 0 37.863 16.952 37.863 37.863s-16.952 37.863-37.863 37.863v0zM888.531 616.614c-16.11-0.137-29.756-10.532-34.738-24.965l-0.078-0.26h-104.448c-5.083 14.736-18.798 25.147-34.956 25.225h-0.010c-20.488-0.543-36.89-17.281-36.89-37.851s16.402-37.308 36.84-37.849l0.050-0.001c16.161 0.074 29.875 10.475 34.887 24.94l0.079 0.26h104.523c5.060-14.693 18.706-25.088 34.799-25.225h0.016c20.488 0.543 36.89 17.281 36.89 37.851s-16.402 37.308-36.84 37.849l-0.050 0.001zM888.531 465.437c-20.627-0.084-37.316-16.825-37.316-37.463 0-0.141 0.001-0.281 0.002-0.421v12.659h-101.951c-5.044 14.695-18.686 25.093-34.775 25.225h-0.016c-20.911 0-37.863-16.952-37.863-37.863s16.952-37.863 37.863-37.863v0c16.108 0.145 29.749 10.55 34.713 24.99l0.078 0.26h102.050v12.488c0.309-20.37 16.895-36.764 37.31-36.764 20.608 0 37.314 16.706 37.314 37.314 0 20.606-16.704 37.311-37.309 37.314v0zM598.565 466.036h-223.931v-371.961h649.365v699.316h-425.435zM974.247 742.916v-598.364h-549.862v271.011h223.931v327.355zM135.467 623.432c16.081 0.118 29.716 10.459 34.737 24.841l0.079 0.26h126.676l49.951-75.451h126.926c1.093-2.752 2.369-5.121 3.877-7.318l-0.081 0.124c0.908-1.59 1.817-2.944 2.81-4.229l-0.062 0.083c1.448-1.753 3.003-3.315 4.689-4.724l0.057-0.046c1.758-1.496 3.721-2.861 5.809-4.026l0.185-0.095c1.244-0.779 2.711-1.563 4.231-2.251l0.24-0.097c3.856-1.635 8.337-2.611 13.038-2.672h0.024c20.911 0 37.863 16.952 37.863 37.863s-16.952 37.863-37.863 37.863v0c-4.725-0.061-9.206-1.038-13.295-2.76l0.233 0.087c-1.722-0.748-3.173-1.525-4.554-2.402l0.134 0.079c-2.285-1.244-4.256-2.602-6.071-4.139l0.052 0.043c-1.731-1.468-3.284-3.029-4.696-4.711l-0.049-0.059c-0.92-1.198-1.828-2.551-2.649-3.962l-0.098-0.184c-1.427-2.072-2.702-4.44-3.709-6.947l-0.087-0.247h-102.025l-49.651 75.551h-151.901c-5.052 14.704-18.701 25.109-34.799 25.251h-0.017c-20.911 0-37.863-16.952-37.863-37.863s16.952-37.863 37.863-37.863v0zM135.467 270.852c16.11 0.137 29.756 10.532 34.738 24.965l0.078 0.26h104.448c5.066-14.689 18.709-25.080 34.799-25.225h0.017c20.488 0.543 36.89 17.281 36.89 37.851s-16.402 37.308-36.84 37.849l-0.050 0.001c-16.101-0.141-29.741-10.522-34.738-24.94l-0.079-0.26h-104.448c-5.060 14.693-18.706 25.088-34.799 25.225h-0.016c-20.488-0.543-36.89-17.281-36.89-37.851s16.402-37.308 36.84-37.849l0.050-0.001zM135.467 422.029c20.627 0.084 37.316 16.825 37.316 37.463 0 0.141-0.001 0.281-0.002 0.421v-12.659h101.951c5.044-14.695 18.686-25.093 34.775-25.225h0.016c20.911 0 37.863 16.952 37.863 37.863s-16.952 37.863-37.863 37.863v0c-16.108-0.145-29.749-10.55-34.713-24.99l-0.078-0.26h-101.951v-12.488c-0.309 20.37-16.895 36.764-37.31 36.764-20.608 0-37.314-16.706-37.314-37.314 0-20.606 16.704-37.311 37.309-37.314v0zM425.434 421.43h223.931v371.961h-649.365v-699.316h425.435zM49.751 144.55v598.364h549.862v-271.011h-223.931v-327.355z" />
<glyph unicode="&#x55;" glyph-name="Charts" d="M170.667 375.466h136.534v-238.934h-136.534v238.934zM409.598 750.932h136.534v-614.401h-136.534v614.401zM648.533 648.532h136.534v-512h-136.534v512zM887.466 887.466h136.534v-750.933h-136.534v750.933zM68.267 34.133v887.468h-68.267v-955.735h1023.999v68.267h-955.735z" />
<glyph unicode="&#x56;" glyph-name="MoveLotToJobList" d="M964.932 224.747c-2.5 154.697-118.624 281.519-268.424 300.77l-1.537 0.161v-90.886l-184.32 114.713 184.32 118.884v-82.794c184.093-20.076 326.442-173.443 329.026-360.587l0.003-0.261zM649.366 193.977h374.634v-124.878h-374.634v124.878zM649.366 245.702h49.951v157.921l-49.951 31.070v-188.99zM49.951 119.050v649.366h99.902v-74.927h74.927v74.927h249.756v-74.927h74.927v74.927h99.902v-95.082l49.951 32.219v112.815h-699.317v-749.268h599.414v49.951h-549.463zM599.414 641.115v2.423h-49.951v-34.641l49.951 32.219zM461.074 551.877l64.662 41.71h-51.2v49.951h-249.756v-49.951h-74.927v49.951h-49.951v-99.902h374.409l-13.237 8.242zM549.463 418.758h-74.927v49.951h-249.756v-49.951h-74.927v49.951h-49.951v-99.902h499.512v99.902h-49.951v-49.951zM549.463 243.928h-74.927v49.951h-249.756v-49.951h-74.927v49.951h-49.951v-99.902h499.512v99.902h-49.951v-49.951z" />
<glyph unicode="&#x5b;" glyph-name="DefectDetails" d="M655.36 525.653h225.28v-61.44h-225.28v61.44zM655.36 402.773h225.28v-61.44h-225.28v61.44zM655.36 279.893h225.28v-61.44h-225.28v61.44zM143.36 689.493h737.28v-61.44h-737.28v61.44zM573.44 402.568v33.096h-95.58c-9.058 10.144-22.163 16.511-36.755 16.548h-0.006c-0.929 8.971-3.611 17.145-7.7 24.421l0.163-0.316 40.837 83.968-29.553 13.578-29.942-69.632c-5.569 7.462-13.774 12.688-23.212 14.306l-0.217 0.030h-66.15c-9.601-1.612-17.769-6.781-23.259-14.079l-0.067-0.094-30.925 69.632-30.229-13.435 43.192-82.391c-4.331-7.412-7.296-16.139-8.31-25.452l-0.026-0.291c-14.598-0.037-27.703-6.404-36.719-16.5l-0.042-0.048h-95.58v-33.342h82.698v-66.15h-82.698v-33.096h82.698v-66.171h-82.698v-33.034h89.682c13.082-29.452 42.073-49.62 75.776-49.623h33.075v231.547h33.096v-231.588h33.075c33.703 0.002 62.694 20.171 75.567 49.097l0.209 0.526h89.6v33.075h-82.698v66.171h82.698v33.096h-82.698v66.15zM0 853.333v-819.2h1024v819.2zM942.080 116.053h-860.16v655.36h860.16z" />
<glyph unicode="&#x5d;" glyph-name="Edit" d="M717.643 51.662h-649.296v785.989h649.296v-114.652l68.347 31.064 0.376 149.816-785.443 0.273-0.923-920.838h785.989v384.076l-68.347-30.756v-284.972zM1020.317 554.866c2.331 5.767 3.683 12.456 3.683 19.46 0 8.276-1.888 16.111-5.257 23.097l0.138-0.318-51.397 112.26c-8.999 19.196-28.162 32.254-50.374 32.254-8.271 0-16.12-1.81-23.17-5.057l0.344 0.142-68.005-31.098 97.361-212.867 68.005 31.098c13.418 6.022 23.685 17.057 28.556 30.659l0.116 0.37zM279.061 456.139l-136.284-208.117 233.644-4.545 496.643 227.151-97.326 212.696zM228.245 294.020l67.049 99.719 53.481-99.719z" />
<glyph unicode="&#x5e;" glyph-name="EnlargeWindow" d="M694.857 955.733v-109.714h219.429v-219.429h109.714v329.143h-329.143zM109.714 260.876h-109.714v-329.143h329.143v109.714h-219.429v219.429zM0 626.59h109.714v219.429h219.429v109.714h-329.143v-329.143zM351.744 300.263h109.714v219.429h219.429v109.714h-329.143v-329.143zM914.286 41.447h-219.429v-109.714h329.143v329.143h-109.714v-219.429zM474.377 569.207l524.051-524.051-77.58-77.58-524.051 524.051 77.58 77.58z" />
<glyph unicode="&#x5f;" glyph-name="Fail" d="M512 955.733c-282.77 0-512-229.23-512-512s229.23-512 512-512c282.77 0 512 229.23 512 512v0c0 282.77-229.23 512-512 512v0zM512 27.716c-229.76 0-416.017 186.257-416.017 416.017s186.257 416.017 416.017 416.017c229.76 0 416.017-186.257 416.017-416.017v0c0-0.010 0-0.022 0-0.034 0-229.741-186.242-415.983-415.983-415.983-0.012 0-0.024 0-0.036 0h0.002zM240.469 647.714l202.001-203.537-203.537-202.035 69.086-69.939 203.537 202.001 202.035-203.537 69.939 69.086-202.001 203.537 203.537 202.035-69.086 69.939-203.537-202.001-202.035 203.537-69.939-69.086z" />
<glyph unicode="&#x60;" glyph-name="Heatmap" d="M764.769 674.133c15.205-36.656 24.325-79.188 24.989-123.768l0.003-0.264c-54.624 38.176-159.168 174.688-201.312 405.632-155.232-135.744-215.904-196.32-257.44-292.576-26.464 12.48-47.616 77.248-58.464 108.448-85.984-155.072-160-271.712-160-454.080 0-190.976 117.824-385.792 385.6-385.792 0.075 0 0.162 0 0.25 0 226.5 0 410.423 182.292 413.059 408.167l0.002 0.249c-0.864 163.296-106.112 305.184-146.688 333.984zM498.145-17.963c-229.568 0-328.608 189.76-328.608 353.504 0 156.32 45.984 220.992 94.592 325.76 18.368-29.028 44.226-51.831 74.886-66.015l1.082-0.449c47.648 109.696 107.616 173.28 216.736 248.608 26.176-230.4 242.976-354.624 249.408-389.824 10.859 15.014 18.869 32.838 22.825 52.14l0.151 0.884c22.548-44.409 35.756-96.831 35.756-152.339 0-1.929-0.016-3.854-0.048-5.775l0.004 0.29c-7.237-199.592-167.193-359.548-366.11-366.765l-0.674-0.019zM514.177 742.805c-84.677-67.962-146.688-161.034-174.883-267.84l-0.797-3.552c-22.318 19.652-38.331 45.987-44.914 75.861l-0.174 0.939c-87.040-125.824-90.176-509.312 218.432-512.448 1.052-0.015 2.295-0.023 3.539-0.023 144.066 0 261.84 112.573 270.155 254.553l0.034 0.734c8.576 194.624-248.448 252.384-271.392 451.776zM504.577 90.453c-178.752-2.048-232.48 214.816-201.6 333.472 18.61-26.146 46.77-44.453 79.291-49.855l0.709-0.097c-11.136 79.232 30.016 186.048 105.184 262.816 34.016-151.936 228.672-183.584 227.2-344.992-8.993-110.675-99.198-197.587-210.486-201.334l-0.362-0.010zM511.841 149.365c-119.424-0.256-162.528 139.488-162.208 176.448 21.247-19.157 49.525-30.877 80.541-30.877 0.935 0 1.868 0.011 2.797 0.032l-0.138-0.002c-11.904 72.512 4.288 167.232 40.416 199.616 26.176-88.48 164.512-94.688 164.512-229.696-4.958-64.834-58.784-115.561-124.458-115.561-0.537 0-1.073 0.003-1.608 0.010l0.081-0.001z" />
<glyph unicode="&#x61;" glyph-name="Paste" d="M767.995 846.045l182.858-0.033v-914.279h-877.709v914.279h197.191c14.738 13.713 38.471 22.197 59.756 36.569 77.787 52.48 117.357 84.004 232.994 69.704 42.715-5.266 82.579-25.089 113.152-55.369 24.43-24.174 58.44-33.17 77.457-50.871h14.3zM511.998 882.62c-40.411 0-73.143-32.732-73.143-73.143s32.732-73.143 73.143-73.143 73.143 32.732 73.143 73.143-32.732 73.143-73.143 73.143zM877.709 4.911l-0.002 767.995h-109.714v-40.923c0-37.998-33.17-68.791-74.056-68.791h-363.846c-40.923 0-74.093 30.793-74.093 68.791v40.923h-109.714v-767.995h731.424z" />
<glyph unicode="&#x62;" glyph-name="Copy" d="M847.448 814.491h141.242v-882.758h-812.139v141.242h-141.242v882.758h812.139v-141.242zM176.55 143.594v670.897h600.276v70.621h-670.897v-741.518h70.621zM918.069 2.352v741.518h-670.897v-741.518h670.897z" />
<glyph unicode="&#x64;" glyph-name="CAM-viewer, subsystemCAM-view" d="M864.303 357.439c0-25.64-16.541-46.949-39.385-55.102v-86.725c22.844-8.191 39.385-29.459 39.385-55.098 0-32.61-26.467-59.077-59.077-59.077s-59.077 26.467-59.077 59.077c0 25.64 16.541 46.947 39.385 55.1v86.725c-22.844 8.154-39.385 29.461-39.385 55.1 0 32.61 26.467 59.077 59.077 59.077s59.077-26.467 59.077-59.077zM214.456 692.206c-32.65 0-59.077 26.427-59.077 59.077 0 32.61 26.467 59.077 59.077 59.077 25.64 0 46.947-16.541 55.1-39.385h240.285l78.77-78.77h161.516c8.154 22.844 29.461 39.385 55.1 39.385 32.61 0 59.077-26.467 59.077-59.077s-26.467-59.077-59.077-59.077c-25.64 0-46.947 16.541-55.1 39.385h-200.901l-79.123 78.77h-200.547c-8.154-22.844-29.461-39.385-55.1-39.385zM214.456 534.667c-32.65 0-59.039 26.471-59.039 59.081s26.467 59.077 59.077 59.077c25.64 0 46.947-16.541 55.1-39.385h240.285l78.77-78.77h161.516c1.497 4.097 3.741 7.602 6.025 11.225 1.379 2.244 2.718 4.41 4.373 6.459 2.284 2.758 4.726 5.16 7.484 7.444 2.954 2.52 6.143 4.528 9.53 6.419 2.362 1.299 4.488 2.716 7.048 3.661 6.419 2.482 13.271 4.175 20.636 4.175 32.61 0 59.077-26.467 59.077-59.077s-26.467-59.077-59.077-59.077c-7.364 0-14.177 1.693-20.636 4.175-2.56 0.945-4.726 2.362-7.088 3.661-3.387 1.891-6.577 3.899-9.53 6.419-2.758 2.284-5.16 4.686-7.484 7.444-1.693 2.008-2.992 4.215-4.37 6.459-2.324 3.623-4.568 7.128-6.025 11.225h-200.901l-79.123 78.77h-200.547c-8.154-22.844-29.461-39.385-55.1-39.385zM214.454 101.44c-32.65 0-59.081 26.467-59.081 59.077s26.427 59.077 59.077 59.077c25.64 0 46.947-16.541 55.1-39.385h244.264c8.154 22.844 29.461 39.385 55.1 39.385 32.61 0 59.077-26.467 59.077-59.077s-26.467-59.077-59.077-59.077c-25.64 0-46.907 16.541-55.098 39.385h-244.264c-8.191-22.844-29.459-39.385-55.098-39.385zM214.45 298.364c-32.65 0-59.077 26.427-59.077 59.077 0 32.61 26.467 59.077 59.077 59.077s59.077-26.467 59.077-59.077v19.692h240.285c8.154 22.844 29.461 39.385 55.1 39.385 32.61 0 59.077-26.467 59.077-59.077s-26.467-59.077-59.077-59.077c-25.64 0-46.947 16.541-55.1 39.385h-240.285v19.692c0-32.61-26.467-59.077-59.077-59.077zM0 955.733h1024v-1024h-1024v1024zM945.23 10.501v866.463h-866.463v-866.463h866.463z" />
<glyph unicode="&#x65;" glyph-name="Report" d="M663.708 462.696h-113.778v265.482h113.778v-265.482zM436.152 273.066h-265.482v75.852h265.482v-75.852zM853.337 462.696h-113.778v227.556h113.778v-227.556zM631.167 83.437l-157.091 157.96 54.462 56.928 102.628-103.196 172.601 189.819 49.569-59.772zM436.15 121.361h-265.482v75.852h265.482v-75.852zM18.963 955.733h986.074v-1024h-986.074v1024zM929.185 7.585v796.445h-834.371v-796.445h834.371zM474.074 462.698h-113.778v151.704h113.778v-151.704zM284.444 462.698h-113.778v113.778h113.778v-113.778z" />
<glyph unicode="&#x66;" glyph-name="AOI" d="M456.931 576.459l0.004 113.782h-27.46c4.74 13.427 10.581 64.212 18.356 75.855h274.595v-200.901c-10.923-13.616-61.29-54.844-75.855-64.591v189.637h-113.782v-151.71c-7.169-32.618-76.69-1.024-75.855 37.927zM589.681 386.822c-157.094 0-284.456 127.359-284.456 284.456s127.359 284.456 284.456 284.456 284.456-127.359 284.456-284.456-127.359-284.456-284.456-284.456zM589.681 879.876c-115.185 0-208.601-93.377-208.601-208.601s93.377-208.601 208.601-208.601 208.601 93.377 208.601 208.601-93.377 208.601-208.601 208.601zM1007.83 329.020c20.444-20.444 18.887-55.148-3.528-77.487-22.378-22.378-57.043-23.933-77.487-3.489l-110.974 110.974c-20.444 20.444-39.939 81.317-17.561 103.656 22.339 22.378 78.093-2.236 98.537-22.68zM608.643 7.549l-0.002 342.294c26.207 1.555 51.695 5.841 75.855 13.275v-431.385h-682.692v720.619h266.439c1.516-26.207 5.841-51.695 13.275-75.855h-203.859v-303.419h227.565v246.603c19.191-35.955 45.058-67.737 75.855-93.945v-152.695h75.855v104.68c23.894-10.81 49.268-18.775 75.855-23.515v-346.656h75.855zM456.931 7.549v189.637h-379.272v-189.637h379.272z" />
<glyph unicode="&#x68;" glyph-name="Lots" d="M737.736 390.452l-14.652-78.32-422.948 78.637v70.621zM723.861 214.217h-459.034v70.621h459.034v-70.621zM833.641 560.823l-70.268-37.041-182.696 356.529 70.232 37.005zM745.47 480.738l-51.835-50.671-315.816 244.842 51.871 50.671zM935.724 567.32h-70.621v388.413h70.621v-388.413zM723.861 72.975h-459.034v70.621h459.034v-70.621zM829.792 37.664v388.413h70.621v-494.345h-812.139v494.345h70.621v-388.413c0-19.492 15.819-35.31 35.31-35.31h600.276c19.492 0 35.31 15.819 35.31 35.31z" />
<glyph unicode="&#x6a;" glyph-name="Calendar" d="M280.544 790.091c-19.492 0-33.368 4.907-33.368 24.399v105.931c0 19.492 15.819 35.31 35.31 35.31s35.31-15.819 35.31-35.31v-105.931c0-19.492-17.761-24.399-37.253-24.399zM704.267 790.091c-19.528 0-35.346 15.819-35.346 35.31l1.978 95.020c0 19.492 15.819 35.31 35.31 35.31s35.31 0 35.31-70.621l-1.942-59.709c0-19.492-15.819-35.31-35.31-35.31zM882.761 849.801c71.079 0 105.927-52.968 105.927-105.933v-812.136h-953.377v812.138c0 62.994 10.17 105.931 70.621 105.931h105.931l-1.942-24.399c0-39.017 31.637-70.621 70.621-70.621 39.017 0 70.621 31.603 70.621 70.621l1.942 24.399h282.483l-1.942-24.399c0-39.017 31.603-70.621 70.621-70.621s70.621 31.603 70.621 70.621l1.942 24.399h105.931zM918.068 2.351v670.896h-812.138v-670.896h812.138zM280.54 83.883v105.931h-105.931v35.31h105.931v105.931h-105.931v35.31h105.931v105.931h-105.931v35.31h105.931v105.931h35.31v-105.931h105.931v105.931h35.31v-105.931h105.931v105.931h35.31v-105.931h105.931v105.931h35.31v-105.931h105.931v-35.31h-105.931v-105.931h105.931v-35.31h-105.931v-105.931h105.931v-35.31h-105.931v-105.931h-35.31v105.931h-105.931v-105.931h-35.31v105.931h-105.931v-105.931h-35.31v105.931h-105.931v-105.931h-35.31zM598.332 472.298v-105.931h105.931v105.931h-105.931zM598.332 331.056v-105.931h105.931v105.931h-105.931zM457.090 472.298v-105.931h105.931v105.931h-105.931zM457.090 331.056v-105.931h105.931v105.931h-105.931zM315.849 472.298v-105.931h105.931v105.931h-105.931zM315.849 331.056v-105.931h105.931v105.931h-105.931z" />
<glyph unicode="&#x6d;" glyph-name="AdvancedOptions" d="M930.175 567.152l91.509 20.059-2.759 51.799-93.995 10.217c-4.696 21.834-11.255 41.041-19.743 59.164l0.706-1.678 69.168 63.106-28.301 43.558-86.741-38.143c-13.418 14.482-28.197 27.358-44.24 38.547l-0.884 0.584 28.743 90.283-46.35 23.601-57.214-78.091c-16.638 5.556-36.088 9.727-56.178 11.726l-1.139 0.092-20.502 93.757-51.936-2.759-10.557-96.004c-21.053-4.74-39.501-11.157-56.939-19.368l1.666 0.705-64.707 71.075-43.694-28.573 39.335-89.397c-13.866-12.969-26.262-27.182-37.121-42.558l-0.579-0.864-92.973 29.561-23.533-46.214 79.862-58.611c-5.38-16.057-9.473-34.858-11.513-54.271l-0.1-1.172-95.732-20.979 2.759-51.902 97.707-10.762c4.523-20.758 10.667-38.96 18.547-56.203l-0.701 1.713-71.824-65.456 28.335-43.558 89.534 39.369c12.887-14.070 26.99-26.628 42.271-37.655l0.81-0.556-29.39-92.496 46.35-23.533 57.895 79.010c16.627-5.797 36.067-10.21 56.17-12.424l1.215-0.109 21.319-93.893 54.49 2.895 11.273 96.277c20.348 4.901 38.119 11.384 54.893 19.591l-1.561-0.69 72.88-71.688 49.79 37.087-49.824 83.812c11.403 12.038 22.419 24.889 32.78 38.272l0.867 1.165 90.385-28.743 23.567 46.35-76.797 56.363c5.961 17.020 10.439 36.887 12.603 57.443l0.1 1.167zM665.593 477.108c-1.823-0.103-3.956-0.162-6.103-0.162-63.461 0-114.905 51.445-114.905 114.905s51.445 114.905 114.905 114.905c61.307 0 111.4-48.013 114.729-108.488l0.013-0.295c0.104-1.829 0.163-3.969 0.163-6.122 0-61.314-48.023-111.411-108.508-114.73l-0.295-0.013zM426.349 223.867c-3.166 12.516-7.163 23.375-12.138 33.674l0.456-1.048 55.614 64.707c-13.575 21.371-29.352 39.747-47.394 55.607l-0.284 0.245-73.97-44.001c-8.752 5.974-18.763 11.45-29.304 15.917l-1.142 0.43-6.334 83.301c-9.621 2.636-21.339 4.908-33.313 6.351l-1.22 0.12c-4.785 0.323-10.371 0.507-16 0.507-8.108 0-16.127-0.382-24.039-1.13l1.011 0.077-20.638-81.19c-12.652-3.177-23.649-7.234-34.063-12.303l1.029 0.452-64.4 55.239c-21.519-13.478-40.026-29.147-56.041-47.088l-0.22-0.25 44.273-74.276c-5.913-8.726-11.344-18.715-15.779-29.226l-0.431-1.152-84.8-6.471c-2.681-9.632-4.988-21.346-6.452-33.32l-0.121-1.213c-0.308-4.689-0.483-10.165-0.483-15.683 0-8.051 0.373-16.016 1.103-23.876l-0.076 1.008 82.859-21.047c3.144-12.681 7.192-23.715 12.266-34.159l-0.448 1.022-55.375-65.422c14.203-22.317 30.87-41.454 49.987-57.809l0.348-0.291 75.979 44.273c7.381-4.882 15.881-9.517 24.772-13.425l1.111-0.435 7.016-83.403c9.246-2.527 20.567-4.737 32.129-6.174l1.246-0.126c5.44-0.408 11.782-0.641 18.179-0.641 8.95 0 17.793 0.455 26.508 1.344l-1.095-0.090 21.762 82.893c10.586 3.147 19.618 6.759 28.236 11.075l-0.991-0.449 64.707-55.443c21.488 13.5 39.971 29.178 55.971 47.119l0.222 0.253-43.966 73.97c5.961 8.806 11.417 18.887 15.853 29.501l0.426 1.15 84.323 6.437c2.621 9.511 4.903 21.132 6.377 33.003l0.127 1.257c0.315 4.703 0.494 10.194 0.494 15.727 0 8.156-0.39 16.222-1.151 24.179l0.078-1.013zM250.449 127.283c-30.253 2.686-53.795 27.909-53.795 58.632 0 32.501 26.348 58.849 58.849 58.849s58.849-26.348 58.849-58.849c0-1.782-0.079-3.545-0.234-5.286l0.016 0.225c-2.707-30.252-27.936-53.785-58.662-53.785-1.768 0-3.518 0.078-5.247 0.231l0.224-0.016z" />
<glyph unicode="&#x6e;" glyph-name="SearchByName" d="M440.368 701.298h-183.488v36.698h183.488v-36.698zM366.973 613.335c-6.642-7.083-13.027-14.459-19.082-22.129h-91.010v36.698h110.093v-14.569zM256.881 260.93l0.002 36.698h34.385c3.633-12.55 7.852-24.844 12.917-36.698h-47.304zM220.185 371.022h-73.395v36.698h73.395v-36.698zM256.883 371.022v36.698h22.019c-0.33-6.128-0.916-12.146-0.916-18.349s0.587-12.221 0.916-18.349h-22.019zM304.186 517.811c-5.065-11.854-9.249-24.147-12.919-36.698h-34.385v36.698h47.304zM73.397 150.839l308.147 0.004c35.083-32.955 77.248-58.387 124.183-73.397h-505.727v844.042h623.856v-205.505c-6.128 0.33-12.146 0.916-18.349 0.916-18.788 0-37.1-1.946-55.044-4.992v136.184h-477.066v-697.251zM880.739 389.377c0-152-123.229-275.232-275.232-275.232s-275.232 123.229-275.232 275.232 123.229 275.232 275.232 275.232 275.232-123.229 275.232-275.232zM605.507 187.541c111.487 0 201.837 90.349 201.837 201.837s-90.386 201.837-201.837 201.837-201.837-90.349-201.837-201.837 90.349-201.837 201.837-201.837zM220.185 260.936h-73.395v36.698h73.395v-36.698zM1010.096 58.218c19.781-19.781 18.276-53.359-3.376-74.974s-55.193-23.157-74.974-3.376l-107.376 107.413c-19.781 19.781-38.643 78.68-16.991 100.294 21.615 21.652 75.561-2.164 95.341-21.944zM220.185 701.304h-73.395v36.698h73.395v-36.698zM220.185 481.119h-73.395v36.698h73.395v-36.698zM220.185 591.214h-73.395v36.698h73.395v-36.698z" />
<glyph unicode="&#x73;" glyph-name="BarCode, barcode" d="M246.653-68.267h-37.908v492.796h37.908v-492.796zM57.115-68.267h-37.908v492.796h37.908v-492.796zM360.374-68.267h-75.815v492.796h75.815v-492.796zM170.836-68.267h-75.815v492.796h75.815v-492.796zM436.187-68.267h-37.908v492.796h37.908v-492.796zM933.344 848.336c105.573-124.906 65.923-531.119 55.423-622.59 14.745-39.158 5.722-85.063-26.423-115.579l-130.478-73.39c-42.684-40.524-110.007-38.59-150.303 4.359l-36.505 38.892c-40.297 42.91-38.402 110.612 4.32 151.136l130.478 73.39c3.299 3.147 6.142 5.572 9.136 8.188 5.497 23.957 10.35 54.624 11.791 87.718-72.668-47.233-200.417-76.686-80.099 73.617 19.294 24.072-12.776 88.743 0.302 123.163-47.498-35.482-86.202-63.572-93.328-75.967-22.024-38.361-81.462-69.331-119.597-47.194l-311.599 204.966c-38.135 22.176-29.415 130.932-7.392 169.293s411.863 113.986 478.467 106.935 231.842-16.907 265.807-106.937zM539.867 581.015c8.075 44.163 5.384 52.428-17.513 65.732l-246.513 165.731c-22.858 13.305-61.903 8.642-65.351-17.59-10.652-81.501 20.848-73.882 43.745-87.187l250.188-165.048c22.897-13.268 30.668 12.32 35.444 38.361zM512.006-68.262h-37.908v492.796h37.908v-492.796z" />
<glyph unicode="&#x74;" glyph-name="FullScreen" d="M694.857 955.734l329.143-0.002v-329.142h-109.714v219.429h-219.429v109.714zM109.717 260.876l-0.002-219.427h219.429v-109.714h-329.142v329.142h109.714zM0.001 626.59l0.002 329.143h329.142v-109.714h-219.429v-219.429h-109.714zM914.286 41.45l-0.002 219.427h109.714v-329.142h-329.142v109.714h219.429z" />
<glyph unicode="&#x78;" glyph-name="Search-job" d="M513.765 829.734h-36.698v110.093h36.698v-110.093zM440.37 829.734h-36.698v110.093h36.698v-110.093zM366.975 829.734h-36.698v110.093h36.698v-110.093zM477.105 462.76h110.057l146.826-110.093v-73.395l-146.79 110.093h-146.79zM293.582 829.734h-36.698v110.093h36.698v-110.093zM110.094 315.97l155.227-0.002c12.66-55.633 39.34-105.761 76.147-146.788h-341.469v550.461h146.79v110.093h110.093v-110.093h36.698v110.093h36.698v-110.093h36.698v110.093h36.698v-110.093h36.698v110.093h36.698v-110.093h36.698v110.093h110.093v-110.093h73.395v-19.192c-34.495 12.221-71.449 19.194-110.091 19.194-114.496 0-215.307-58.312-274.571-146.79h-202.496v-36.698h181.542c-11.487-23.082-20.405-47.633-26.276-73.395h-155.266v-36.698h148.956c-1.357-12.036-2.166-24.257-2.166-36.698 0-12.403 0.843-24.624 2.164-36.698h-148.956v-36.698zM880.737 371.015c0-152-123.192-275.232-275.232-275.232-152 0-275.232 123.229-275.232 275.232s123.229 275.232 275.232 275.232 275.232-123.229 275.232-275.232zM605.507 169.178c111.487 0 201.874 90.386 201.837 201.837 0 111.487-90.349 201.837-201.837 201.837s-201.837-90.349-201.837-201.837 90.349-201.837 201.837-201.837zM1010.096 39.856c19.781-19.781 18.276-53.359-3.376-74.937-21.652-21.652-55.193-23.157-74.974-3.376l-107.413 107.376c-19.781 19.781-38.643 78.68-16.991 100.294 21.615 21.652 75.561-2.164 95.341-21.944z" />
<glyph unicode="&#x7b;" glyph-name="Move_1" d="M210.335 694.887l420.069-7.397-555.259-556.147c-1.019 0.078-2.204 0.121-3.401 0.121s-2.383-0.043-3.558-0.132l0.157 0.011 132.232-131.344c0.069 0.928 0.11 2.015 0.11 3.107s-0.039 2.176-0.117 3.25l0.010-0.143 555.259 555.849 7.397-421.251 192.58-3.549-13.015 737.191-735.711 13.015z" />
<glyph unicode="&#x81;" glyph-name="Copy1" d="M847.448 814.491h141.242v-882.758h-812.139v141.242h-141.242v882.758h812.139v-141.242zM176.55 143.594v670.897h600.276v70.621h-670.897v-741.518h70.621zM918.069 2.352v741.518h-670.897v-741.518h670.897z" />
<glyph unicode="&#x82;" glyph-name="bug, Debug, defect" d="M1006.494 532.152h-190.189v-152.152h190.191v-76.076h-190.191v-152.152h190.191v-76.076h-206.242c-29.367-67.1-96.2-114.115-174.14-114.115h-76.076v532.533h-76.076v-532.533h-76.076c-77.941 0-144.774 47.015-174.14 114.115h-206.242v76.076h190.191v152.152h-190.191v76.076h190.191v152.152h-190.191v76.076h219.822c20.884 23.204 50.819 38.039 84.484 38.039 0 14.721 7.684 36.668 19.171 59.225l-99.355 189.467 69.534 30.888 71.131-160.026c17.573 19.019 36.554 32.599 53.634 32.599h152.152c17.155 0 36.212-13.656 53.861-32.827l68.848 160.292 67.935-31.229-93.877-192.93c10.422-21.225 17.346-41.576 17.346-55.459 33.664 0 63.601-14.835 84.484-38.039h219.822v-76.076z" />
<glyph unicode="&#x83;" glyph-name="Delete, reject" d="M881.592 682.078h142.408v-105.931h-141.242v-546.568c0-29.661-25.247-53.707-56.39-53.707h-628.736c-31.143 0-56.39 24.046-56.39 53.707v546.568h-141.242v105.931h142.406c5.896 59.392 54.661 105.931 114.689 105.931h174.080c-4.732 10.84-7.452 22.74-7.452 35.31 0 48.764 39.512 88.276 88.276 88.276s88.276-39.512 88.276-88.276c0-12.57-2.72-24.471-7.452-35.31h174.080c60.027 0 108.791-46.539 114.687-105.931zM353.103 107.367v468.815h-96.045c-3.39 0-6.602-0.211-9.922-0.281v-468.534c0-33.616 18.044-60.876 40.29-60.876h25.388c22.246 0 40.29 27.26 40.29 60.876zM564.964 107.367l-0.036 468.781h-105.931v-468.781c0-33.616 18.044-60.876 40.29-60.876h25.388c22.246 0 40.29 27.26 40.29 60.876zM776.827 107.367l-0.034 468.498c-3.32 0.106-6.499 0.283-9.924 0.283h-96.009v-468.781c0-33.616 18.044-60.876 40.29-60.876h25.388c22.246 0 40.29 27.26 40.29 60.876z" />
<glyph unicode="&#x84;" glyph-name="FilterName" d="M368.16 659.75h-110.448v36.816h110.448v-36.816zM441.792 770.198h-184.081v36.816h184.081v-36.816zM368.16 549.302h-110.448v36.816h110.448v-36.816zM478.608 328.405h-220.896v36.816h220.896v-36.816zM404.976 438.854h-147.264v36.816h147.264v-36.816zM434.649 619.509v56.623s121.161 67.004 294.528 67.004c176.421 0 294.526-67.004 294.526-67.004v-56.623s-113.136-60.451-294.528-60.451c-166.223 0-294.526 60.451-294.526 60.451zM552.238 181.143v110.448l73.632-36.816v-147.264h-625.87v846.766h625.87v-147.264l-73.632-36.816v110.448h-478.606v-699.502h478.606zM220.896 770.198h-73.632v36.816h73.632v-36.816zM220.896 659.75h-73.632v36.816h73.632v-36.816zM729.177 485.427c178.078 1.179 294.823 77.609 294.823 77.609l-221.189-298.503v-294.528s-36.816-36.816-73.632-36.816-73.632 36.816-73.632 36.816v294.528l-220.896 298.318s119.062-78.566 294.526-77.424zM220.898 438.854h-73.632v36.816h73.632v-36.816zM220.898 328.405h-73.632v36.816h73.632v-36.816zM220.898 549.302h-73.632v36.816h73.632v-36.816z" />
<glyph unicode="&#x85;" glyph-name="FullScreenMode" d="M0 904.533v-921.6h1024v921.6zM955.733 51.2h-887.466v682.667h887.466z" />
<glyph unicode="&#x86;" glyph-name="Highlight_Off, highlight-off" d="M511.999 955.733c-209.459 0-379.259-169.8-379.259-379.259v0c0-120.301 112.564-252.549 215.609-379.259h327.301c103.045 126.711 215.609 258.958 215.609 379.259 0 209.459-169.8 379.259-379.259 379.259v0zM642.92 273.066h-261.689c-82.603 101.376-172.639 207.151-172.639 303.407 0 167.567 135.84 303.407 303.407 303.407s303.407-135.84 303.407-303.407v0c0-96.256-90.036-202.031-172.487-303.407zM511.999-68.267c83.778 0 151.704 84.916 151.704 189.63h-303.407c0-104.713 67.925-189.63 151.704-189.63zM636.017 540.899c2.073 2.801 3.318 6.323 3.318 10.137 0 4.736-1.92 9.023-5.025 12.126l-28.445 28.445-66.37-104.258v98.607h-54.993v-98.607l-66.37 104.296-29.999-29.961c-2.627-2.651-4.249-6.3-4.249-10.329 0-3.246 1.053-6.245 2.837-8.675l-0.029 0.041 97.811-133.12v-98.607h54.993v98.607z" />
<glyph unicode="&#x87;" glyph-name="Highlight_On, highlight-on" d="M511.999-68.267c83.778 0 151.704 84.916 151.704 189.63h-303.407c0-104.713 67.925-189.63 151.704-189.63zM511.999 955.733c-209.459 0-379.259-169.8-379.259-379.259v0c0-120.301 112.564-252.549 215.609-379.259h327.301c103.045 126.711 215.609 258.958 215.609 379.259 0 209.459-169.8 379.259-379.259 379.259v0zM539.496 409.6v-98.607h-54.993v98.607l-95.384 129.707c-2.349 3.173-3.76 7.163-3.76 11.484 0 5.365 2.176 10.222 5.694 13.737v0l27.079 27.117 66.37-104.258v98.607h54.993v-98.607l66.37 104.258 27.079-27.079c3.518-3.515 5.694-8.372 5.694-13.737 0-4.32-1.411-8.311-3.797-11.536l0.037 0.053z" />
<glyph unicode="&#x88;" glyph-name="IDF" d="M64.853 409.6h-64.853v68.267h64.853v-68.267zM133.12 477.866h-68.267v64.853h64.853v-64.853zM662.187 344.746h-64.853v64.853h64.853v-64.853zM197.973 409.6h-64.853v68.267h64.853v-68.267zM262.827 344.746h-64.853v64.853h64.853v-64.853zM662.187 47.786h-662.187v262.827h662.187v-262.827zM529.067 344.746h-64.853v64.853h64.853c0 0 0-64.853 0-64.853zM395.947 344.746h-64.853v64.853h64.853c0 0 0-64.853 0-64.853zM133.12 344.746h-68.267v64.853h64.853v-64.853zM662.187 576.853h-662.187v262.827h662.187v-262.827zM662.187 477.866h-64.853v64.853h64.853v-64.853zM1024 477.866v-68.267h-215.040l126.293-126.293-44.373-37.547-211.627 197.973 215.040 197.973 44.373-37.547-129.707-126.293h215.040zM593.92 409.6h-64.853v68.267h64.853v-68.267zM395.947 477.866h-64.853v64.853h64.853c0 0 0-64.853 0-64.853zM529.067 477.866h-64.853v64.853h64.853c0 0 0-64.853 0-64.853zM262.827 477.866h-64.853v64.853h64.853v-64.853zM331.093 409.6h-68.267v68.267h64.853v-68.267zM460.8 409.6h-64.853v68.267h64.853v-68.267z" />
<glyph unicode="&#x89;" glyph-name="Image, gallery, Camera" d="M933.789 724.927c38.839 0 70.299-31.459 70.299-70.299v-562.386c0-38.839-31.493-70.299-70.299-70.299h-843.581c-38.839 0-70.299 31.459-70.299 70.299v562.386c0 38.839 31.459 70.299 70.299 70.299h161.687l84.358 140.597h351.491l84.358-140.597h161.687zM512 162.541c116.484 0 210.896 94.447 210.896 210.896 0 116.484-94.412 210.896-210.896 210.896s-210.896-94.412-210.896-210.896 94.412-210.896 210.896-210.896zM863.491 584.332v70.299h-105.447v-70.299h105.447zM512 267.99c-58.237 0-105.446 47.21-105.446 105.446s47.21 105.446 105.446 105.446 105.446-47.21 105.446-105.446-47.21-105.446-105.446-105.446z" />
<glyph unicode="&#x8b;" glyph-name="DropDownList" d="M862.298 488.666h-544.908v77.844h544.908v-77.844zM862.298 332.977h-544.908v77.844h544.908v-77.844zM862.298 722.197v-77.842h-544.908l1.868 77.765zM239.545 488.666h-77.844v77.844h77.844v-77.844zM239.545 644.355h-77.844v77.844h77.844v-77.844zM6.012 955.732h1011.977v-856.286h-311.377l-196.752-167.714-192.47 167.714h-311.377v856.286zM940.144 177.29l-0.002 700.597h-856.286v-700.597h272.455l155.689-155.689 155.689 155.689h272.455zM239.545 332.979h-77.844v77.844h77.844v-77.844z" />
<glyph unicode="&#x8d;" glyph-name="MachineCenter" d="M706.211 408.423h-35.31v35.31h35.31v-35.31zM494.349 408.423h-35.31v35.31h35.31v-35.31zM635.591 408.423h-35.31v35.31h35.31v-35.31zM564.97 408.423h-35.31v35.31h35.31v-35.31zM865.107 267.181c-48.764 0-88.276 39.548-88.276 88.276 0 48.764 39.512 88.276 88.276 88.276s88.276-39.512 88.276-88.276-39.512-88.276-88.276-88.276zM423.728 408.423h-35.31v35.31h35.31v-35.31zM776.831 267.181h-35.31v35.31h35.31v-35.31zM706.21 267.181h-35.31v35.31h35.31v-35.31zM635.589 267.181h-35.31v35.31h35.31v-35.31zM1024.002 355.457c0-87.746-71.148-158.897-158.893-158.897h17.655v-105.931h35.31v-35.31h-141.242v35.31h35.31v105.931h-282.484v-105.931h35.31v-35.31h-141.242v35.31h35.31v105.931h-282.484v-105.931h35.31v-35.31h-141.242v35.31h35.31v105.931h-105.931v635.587h211.863c78.001 0 141.242-63.241 141.242-141.242v-176.552h512c87.746 0 158.895-71.149 158.895-158.895zM105.935 514.352v211.863h-35.31v-211.863h35.31zM282.488 514.352v211.863h-105.931v-211.863h105.931zM865.109 231.87c68.254 0 123.585 55.334 123.585 123.589s-55.331 123.585-123.585 123.585h-512v-105.931h423.724v-35.31h-423.724v-105.931h512zM494.351 267.184h-35.31v35.31h35.31v-35.31zM423.73 267.184h-35.31v35.31h35.31v-35.31zM564.97 267.184h-35.31v35.31h35.31v-35.31zM776.834 408.426h-35.31v35.31h35.31v-35.31z" />
<glyph unicode="&#x8e;" glyph-name="Minus" d="M68.267 332.8v221.868h887.467v-221.868h-887.467z" />
<glyph unicode="&#x90;" glyph-name="Navigation" d="M1022.377 412.12l-167.297-0.034c-5.782-67.386-30.395-129.125-68.094-180.214l119.826-111.374c-13.998-16.804-29.416-32.289-45.443-47.165l-118.001 109.684c-53.050-49.229-121.010-81.992-196.375-89.735v-155.362c-11.598-0.777-23.161-1.759-34.961-1.759s-23.363 0.981-34.961 1.759v155.362c-75.668 7.777-143.9 40.777-197.051 90.378l-118.001-109.684c-16.027 14.91-31.411 30.464-45.374 47.268l119.861 111.408c-37.361 50.953-61.772 112.422-67.519 179.469h-167.364c-0.676 10.515-1.623 20.929-1.623 31.613s0.947 21.099 1.623 31.613h167.398c5.917 66.742 30.363 127.939 67.657 178.656l-120.334 111.847c13.931 16.804 29.28 32.391 45.273 47.301l118.608-110.224c53.117 49.432 121.245 82.365 196.812 90.141v156.477c11.632 0.777 23.161 1.759 34.961 1.759s23.363-0.981 34.926-1.759v-156.477c75.229-7.743 143.123-40.404 196.138-89.498l118.576 110.224c16.027-14.878 31.445-30.397 45.443-47.202l-120.334-111.847c37.632-50.885 62.28-112.319 68.231-179.401h167.398c0.676-10.515 1.623-20.929 1.623-31.613s-0.981-21.099-1.623-31.613zM286.818 607.378c-26.609-38.071-44.292-83.142-49.77-132.033h191.81zM236.913 412.12c5.377-49.195 23.059-94.535 49.703-132.843l142.918 132.843h-192.621zM477.039 162.763v204.085l-146.369-136.056c40.303-35.942 90.309-60.861 146.369-68.029zM477.039 519.978v203.61c-55.924-7.133-105.863-31.951-146.132-67.79zM786.986 475.346c-5.545 49.229-23.499 94.535-50.379 132.741l-142.817-132.741h193.196zM546.961 723.618v-202.357l145.422 135.176c-40.133 35.501-89.802 60.048-145.422 67.181zM546.961 162.763c55.721 7.133 105.491 31.783 145.658 67.42l-145.658 135.413v-202.833zM736.775 278.568c26.981 38.478 44.901 84.020 50.31 133.553h-194.007z" />
<glyph unicode="&#x91;" glyph-name="NormalView" d="M256.002 699.733l-0.002 255.998h128v-383.998h-383.998v128h256zM0 187.733l0.002 127.998h383.998v-383.998h-128v256h-256zM640-68.267l0.002 384h383.998v-128h-256v-256h-128zM768.002 699.731l255.998 0.002v-128h-383.998v383.998h128v-256z" />
<glyph unicode="&#x92;" glyph-name="Number" d="M512 955.733c-282.77 0-512-229.23-512-512s229.23-512 512-512c282.77 0 512 229.23 512 512v0c0 282.77-229.23 512-512 512v0zM512 27.716c-0.010 0-0.022 0-0.034 0-229.76 0-416.017 186.257-416.017 416.017s186.257 416.017 416.017 416.017c229.76 0 416.017-186.257 416.017-416.017v0c0-229.748-186.238-415.998-415.981-416.017h-0.002zM318.532 178.688l32.256 164.147h-101.615v49.357h112.64l23.552 121.446h-106.53v49.562h117.828l32.222 159.949h71.987l-31.027-159.949h128.99l32.256 159.949h73.148l-30.993-159.949h101.581v-49.425h-112.64l-22.289-121.446h106.633v-49.357h-117.931l-32.256-164.147h-74.445l32.29 164.147h-128.99l-32.256-164.147zM565.35 392.192l23.552 121.446h-128.99l-23.552-121.446z" />
<glyph unicode="&#x94;" glyph-name="Panels" d="M0 826.191v-345.446h481.156v345.446zM172.723 530.354h-123.472v246.229h209.414v-109.198h-85.424zM431.906 530.354h-209.414v96.86h85.424v2.899h0.518v146.469h123.472zM370.121 666.94v-62.020c-6.826-2.438-12.021-7.929-14.001-14.784l-0.039-0.157h-61.218c-2.997 8.722-11.093 14.894-20.643 14.977h-0.010c-12.407 0-22.466-10.058-22.466-22.466s10.058-22.466 22.466-22.466v0c9.558 0.087 17.653 6.258 20.606 14.823l0.046 0.155h62.020c2.979-8.784 11.15-14.993 20.772-14.993 10.94 0 20.004 8.026 21.628 18.51l0.016 0.123c0.492 1.676 0.788 3.605 0.814 5.599v0.015c-0.088 9.558-6.251 17.654-14.811 20.618l-0.155 0.046v62.020c8.713 2.999 14.879 11.088 14.965 20.63v0.010c-0.294 12.179-10.237 21.94-22.46 21.94s-22.165-9.761-22.46-21.913l-0.001-0.028c0.081-9.543 6.231-17.629 14.774-20.594l0.155-0.046zM217.532 734.401c-9.557-0.081-17.652-6.249-20.606-14.811l-0.046-0.155h-62.020c-2.995 8.764-11.159 14.953-20.768 14.953-10.928 0-19.986-8.004-21.632-18.469l-0.016-0.124c-0.497-1.678-0.797-3.612-0.826-5.609v-0.016c0.087-9.558 6.258-17.653 14.823-20.606l0.155-0.046v-62.020c-8.72-3-14.89-11.094-14.977-20.642v-0.010c0-12.407 10.058-22.466 22.466-22.466s22.466 10.058 22.466 22.466v0c-0.084 9.56-6.255 17.656-14.823 20.606l-0.155 0.046v62.020c6.826 2.438 12.021 7.929 14.001 14.784l0.039 0.157h61.267c2.997-8.722 11.093-14.894 20.643-14.977h0.010c12.179 0.294 21.94 10.237 21.94 22.46s-9.761 22.165-21.913 22.46l-0.028 0.001zM542.844 826.191v-345.446h481.156v345.446zM715.566 530.354h-123.472v246.229h209.414v-109.198h-85.424zM974.749 530.354h-209.414v96.86h85.424v2.899h0.518v146.469h123.472zM912.964 666.94v-62.020c-6.826-2.438-12.021-7.929-14.001-14.784l-0.039-0.157h-61.218c-2.997 8.722-11.093 14.894-20.643 14.977h-0.010c-12.407 0-22.466-10.058-22.466-22.466s10.058-22.466 22.466-22.466v0c9.558 0.087 17.653 6.258 20.606 14.823l0.046 0.155h62.020c2.979-8.784 11.15-14.993 20.772-14.993 10.94 0 20.004 8.026 21.628 18.51l0.016 0.123c0.492 1.676 0.788 3.605 0.814 5.599v0.015c-0.088 9.558-6.251 17.654-14.811 20.618l-0.155 0.046v62.020c8.713 2.999 14.879 11.088 14.965 20.63v0.010c-0.294 12.179-10.237 21.94-22.46 21.94s-22.165-9.761-22.46-21.913l-0.001-0.028c0.081-9.543 6.231-17.629 14.774-20.594l0.155-0.046zM760.376 734.401c-9.557-0.081-17.652-6.249-20.606-14.811l-0.046-0.155h-62.020c-2.995 8.764-11.159 14.953-20.768 14.953-10.928 0-19.986-8.004-21.632-18.469l-0.016-0.124c-0.497-1.678-0.797-3.612-0.826-5.609v-0.016c0.087-9.558 6.258-17.653 14.823-20.606l0.155-0.046v-62.020c-8.72-3-14.89-11.094-14.977-20.642v-0.010c0-12.407 10.058-22.466 22.466-22.466s22.466 10.058 22.466 22.466v0c-0.084 9.56-6.255 17.656-14.823 20.606l-0.155 0.046v62.020c6.826 2.438 12.021 7.929 14.001 14.784l0.039 0.157h61.267c2.997-8.722 11.093-14.894 20.643-14.977h0.010c12.179 0.294 21.94 10.237 21.94 22.46s-9.761 22.165-21.913 22.46l-0.028 0.001zM0 406.721v-345.446h481.156v345.446zM172.723 110.883h-123.472v246.229h209.414v-109.198h-85.424zM431.906 110.883h-209.414v96.86h85.424v2.899h0.518v146.469h123.472zM370.121 247.47v-62.020c-6.826-2.438-12.021-7.929-14.001-14.784l-0.039-0.157h-61.218c-2.997 8.722-11.093 14.894-20.643 14.977h-0.010c-12.407 0-22.466-10.058-22.466-22.466s10.058-22.466 22.466-22.466v0c9.558 0.087 17.653 6.258 20.606 14.823l0.046 0.155h62.020c2.984-8.774 11.151-14.974 20.766-14.974 10.955 0 20.029 8.048 21.634 18.554l0.015 0.122c0.492 1.676 0.788 3.605 0.814 5.599v0.015c-0.088 9.558-6.251 17.654-14.811 20.618l-0.155 0.046v61.958c8.713 2.999 14.879 11.088 14.965 20.63v0.010c-0.294 12.179-10.237 21.94-22.46 21.94s-22.165-9.761-22.46-21.913l-0.001-0.028c0.081-9.543 6.231-17.629 14.774-20.594l0.155-0.046zM217.532 314.931c-9.557-0.081-17.652-6.249-20.606-14.811l-0.046-0.155h-62.020c-3.001 8.754-11.159 14.934-20.762 14.934-10.943 0-20.010-8.026-21.639-18.512l-0.016-0.123c-0.497-1.678-0.797-3.612-0.826-5.609v-0.016c0.115-9.534 6.277-17.598 14.823-20.544l0.155-0.046v-62.020c-8.72-3-14.89-11.094-14.977-20.642v-0.010c0-12.407 10.058-22.466 22.466-22.466s22.466 10.058 22.466 22.466v0c-0.084 9.56-6.255 17.656-14.823 20.606l-0.155 0.046v62.020c6.826 2.438 12.021 7.929 14.001 14.784l0.039 0.157h61.267c2.997-8.722 11.093-14.894 20.643-14.977h0.010c12.179 0.294 21.94 10.237 21.94 22.46s-9.761 22.165-21.913 22.46l-0.028 0.001zM542.844 406.721v-345.446h481.156v345.446zM715.566 110.883h-123.472v246.229h209.414v-109.198h-85.424zM974.749 110.883h-209.414v96.86h85.424v2.899h0.518v146.469h123.472zM912.964 247.47v-62.020c-6.826-2.438-12.021-7.929-14.001-14.784l-0.039-0.157h-61.218c-2.997 8.722-11.093 14.894-20.643 14.977h-0.010c-12.407 0-22.466-10.058-22.466-22.466s10.058-22.466 22.466-22.466v0c9.558 0.087 17.653 6.258 20.606 14.823l0.046 0.155h62.020c2.984-8.774 11.151-14.974 20.766-14.974 10.955 0 20.029 8.048 21.634 18.554l0.015 0.122c0.492 1.676 0.788 3.605 0.814 5.599v0.015c-0.088 9.558-6.251 17.654-14.811 20.618l-0.155 0.046v61.958c8.713 2.999 14.879 11.088 14.965 20.63v0.010c-0.294 12.179-10.237 21.94-22.46 21.94s-22.165-9.761-22.46-21.913l-0.001-0.028c0.081-9.543 6.231-17.629 14.774-20.594l0.155-0.046zM760.376 314.931c-9.557-0.081-17.652-6.249-20.606-14.811l-0.046-0.155h-62.020c-3.001 8.754-11.159 14.934-20.762 14.934-10.943 0-20.010-8.026-21.639-18.512l-0.016-0.123c-0.497-1.678-0.797-3.612-0.826-5.609v-0.016c0.087-9.558 6.258-17.653 14.823-20.606l0.155-0.046v-62.020c-8.72-3-14.89-11.094-14.977-20.642v-0.010c0-12.407 10.058-22.466 22.466-22.466s22.466 10.058 22.466 22.466v0c-0.084 9.56-6.255 17.656-14.823 20.606l-0.155 0.046v62.081c6.826 2.438 12.021 7.929 14.001 14.784l0.039 0.157h61.267c2.997-8.722 11.093-14.894 20.643-14.977h0.010c12.179 0.294 21.94 10.237 21.94 22.46s-9.761 22.165-21.913 22.46l-0.028 0.001z" />
<glyph unicode="&#x95;" glyph-name="Paste1" d="M767.995 846.045l182.858-0.033v-914.279h-877.709v914.279h197.191c14.738 13.713 38.471 22.197 59.756 36.569 77.787 52.48 117.357 84.004 232.994 69.704 42.715-5.266 82.579-25.089 113.152-55.369 24.43-24.174 58.44-33.17 77.457-50.871h14.3zM511.998 882.62c-40.411 0-73.143-32.732-73.143-73.143s32.732-73.143 73.143-73.143 73.143 32.732 73.143 73.143-32.732 73.143-73.143 73.143zM877.709 4.911l-0.002 767.995h-109.714v-40.923c0-37.998-33.17-68.791-74.056-68.791h-363.846c-40.923 0-74.093 30.793-74.093 68.791v40.923h-109.714v-767.995h731.424z" />
<glyph unicode="&#x96;" glyph-name="PerHour, clock, schedule, Clock" d="M512 955.733c-282.77 0-512-229.23-512-512s229.23-512 512-512c282.77 0 512 229.23 512 512v0c0 282.77-229.23 512-512 512v0zM512 27.733c-229.75 0-416 186.25-416 416s186.25 416 416 416c229.75 0 416-186.25 416-416v0c0-229.75-186.25-416-416-416v0zM512 795.733c26.51 0 48-21.49 48-48v-384c0-26.51-21.49-48-48-48s-48 21.49-48 48v384c0 26.51 21.49 48 48 48zM848 427.733c0-26.51-21.49-48-48-48h-384c-26.51 0-48 21.49-48 48s21.49 48 48 48h384c26.51 0 48-21.49 48-48z" />
<glyph unicode="&#x97;" glyph-name="Plus, add, new" d="M989.866 563.2v-238.935h-358.399v-358.399h-238.935v358.399h-358.399v238.935h358.399v358.399h238.935v-358.399h358.399z" />
<glyph unicode="&#x98;" glyph-name="Print-FailPerHour" d="M826.655 359.273c-17.343-8.363-37.485-14.996-58.588-18.887l-1.487-0.228 25.313-110.565h-709.973l61.522 268.752h350.536c-9.115 24.468-14.39 52.736-14.39 82.237 0 63.118 24.145 120.595 63.702 163.701l-0.16-0.177h-515.823v-327.68h34.133l-61.44-245.76h47.787l-47.787-163.84h873.813l-47.787 163.84h47.787zM81.92 65.754l32.358 104.912h645.257l32.358-104.912zM723.627 880.64c-165.891 0-300.373-134.482-300.373-300.373s134.482-300.373 300.373-300.373c165.891 0 300.373 134.482 300.373 300.373v0c0 165.891-134.482 300.373-300.373 300.373v0zM723.627 336.199c-134.794 0-244.067 109.273-244.067 244.067s109.273 244.067 244.067 244.067c134.794 0 244.067-109.273 244.067-244.067v0c0-134.794-109.273-244.067-244.067-244.067v0zM722.862 534.746h1.529c25.723 0 46.558 190.109 46.558 190.109 0 0.041 0 0.089 0 0.137 0 25.638-20.784 46.421-46.421 46.421-0.048 0-0.096 0-0.144 0h-1.521c-0.041 0-0.089 0-0.137 0-25.638 0-46.421-20.784-46.421-46.421 0-0.048 0-0.096 0-0.144v0.008s20.835-190.109 46.558-190.109zM770.949 463.749c0-26.136-21.187-47.322-47.322-47.322s-47.322 21.187-47.322 47.322c0 26.136 21.187 47.322 47.322 47.322s47.322-21.187 47.322-47.322z" />
<glyph unicode="&#x99;" glyph-name="PrintSuccessTime" d="M826.655 359.273c-17.343-8.363-37.485-14.996-58.588-18.887l-1.487-0.228 25.313-110.565h-709.973l61.522 268.752h350.536c-9.115 24.468-14.39 52.736-14.39 82.237 0 63.118 24.145 120.595 63.702 163.701l-0.16-0.177h-515.823v-327.68h34.133l-61.44-245.76h47.787l-47.787-163.84h873.813l-47.787 163.84h47.787zM81.92 65.754l32.358 104.912h645.257l32.358-104.912zM723.627 880.64c-165.891 0-300.373-134.482-300.373-300.373s134.482-300.373 300.373-300.373c165.891 0 300.373 134.482 300.373 300.373v0c0 165.891-134.482 300.373-300.373 300.373v0zM723.627 336.199c-134.794 0-244.067 109.273-244.067 244.067s109.273 244.067 244.067 244.067c134.794 0 244.067-109.273 244.067-244.067v0c0-134.794-109.273-244.067-244.067-244.067v0zM602.030 630.238l-44.619-46.394 139.127-139.127 196.772 212.91-49.316 59.174-156.904-171.622-85.060 85.060z" />
<glyph unicode="&#x9c;" glyph-name="Save, save" d="M778.241 709.969h-532.479v81.92h532.479v-81.92zM0.001 955.73l1024 0.002v-860.16l-163.84-163.84h-860.16v1023.998zM819.201 13.652v245.76h-614.399v-245.76h122.88v204.8h122.88v-204.8h368.639zM901.121 423.253v450.559h-778.239v-450.559h778.239zM778.241 505.173h-532.479v81.92h532.479v-81.92z" />
<glyph unicode="&#x9e;" glyph-name="Stages" d="M726.547 751.812l-77.775-80.606 170.114-176.254h-184.476c-17.749 30.782-50.48 51.17-87.974 51.17s-70.225-20.388-87.713-50.681l-0.261-0.489h-267.504c-18.023 30.805-50.946 51.168-88.625 51.168-56.518 0-102.335-45.817-102.335-102.335s45.817-102.335 102.335-102.335c37.679 0 70.602 20.363 88.363 50.684l0.262 0.483h267.504c17.749-30.782 50.48-51.17 87.974-51.17s70.225 20.388 87.713 50.681l0.261 0.489h184.476l-170.114-176.357 77.775-80.606 297.453 308.13z" />
<glyph unicode="&#x9f;" glyph-name="Successful, OK1" d="M512 955.733c-282.77 0-512-229.23-512-512s229.23-512 512-512c282.77 0 512 229.23 512 512v0c0 282.77-229.23 512-512 512v0zM512 27.716c-229.76 0-416.017 186.257-416.017 416.017s186.257 416.017 416.017 416.017c229.76 0 416.017-186.257 416.017-416.017v0c0-0.010 0-0.022 0-0.034 0-229.741-186.242-415.983-415.983-415.983-0.012 0-0.024 0-0.036 0h0.002zM304.742 528.896l-76.049-79.087 237.158-237.158 335.36 362.94-84.036 100.864-267.435-292.523-144.998 144.964z" />
<glyph unicode="&#xa0;" glyph-name="CallUs" d="M947.373 259.542l-383.382 654.004c-15.074 25.416-42.369 42.188-73.58 42.188-15.913 0-30.807-4.359-43.555-11.949l0.392 0.216-340.109-199.369c-25.404-15.092-42.164-42.391-42.164-73.603 0-15.902 4.35-30.788 11.926-43.533l-0.216 0.393 383.414-654.004c15.101-25.398 42.402-42.152 73.614-42.152 15.897 0 30.779 4.346 43.523 11.914l-0.394-0.217 340.076 199.529c25.371 15.092 42.106 42.367 42.106 73.55 0 15.859-4.328 30.707-11.868 43.427l0.217-0.395zM287.812 826.197c4.262 2.542 9.4 4.044 14.888 4.044 16.252 0 29.427-13.175 29.427-29.427s-13.175-29.427-29.427-29.427c-10.771 0-20.19 5.787-25.319 14.421l-0.075 0.136c-2.542 4.26-4.046 9.395-4.046 14.882 0 10.763 5.785 20.175 14.415 25.297l0.136 0.075zM871.59 199.757l-322.151-188.896c-6.361-3.789-14.027-6.029-22.216-6.029-16.085 0-30.152 8.642-37.811 21.535l-0.111 0.203-328.833 560.937c-3.789 6.361-6.029 14.027-6.029 22.216 0 16.085 8.642 30.152 21.535 37.811l0.203 0.111 322.151 188.832c6.364 3.794 14.035 6.037 22.23 6.037 16.076 0 30.135-8.631 37.797-21.512l0.111-0.202 328.897-560.937c3.779-6.354 6.012-14.010 6.012-22.188 0-16.105-8.663-30.186-21.582-37.839l-0.204-0.112z" />
<glyph unicode="&#xa1;" glyph-name="User" d="M512 795.561c-105.945 0-191.83-85.885-191.83-191.83s85.885-191.83 191.83-191.83c105.945 0 191.83 85.885 191.83 191.83v0c-0.019 105.936-85.893 191.809-191.828 191.83h-0.002zM1021.099 496.066c-27.166 259.451-244.719 459.942-509.099 459.942s-481.934-200.492-508.91-457.727l-0.188-2.215c-1.673-15.66-2.626-33.829-2.626-52.22 0-0.040 0-0.079 0-0.119v0.006c0-282.618 229.107-511.725 511.725-511.725s511.725 229.107 511.725 511.725v0c0 0.033 0 0.073 0 0.113 0 18.391-0.954 36.559-2.815 54.459l0.189-2.238zM767.317 124.007c-15.795 127.521-107.497 236.212-255.317 236.212-3.047 0.135-6.62 0.213-10.213 0.213-132.324 0-240.209-104.635-245.431-235.679l-0.016-0.474h-0.205v5.834l-0.512-5.458c-93.628 75.654-153.006 190.474-153.006 319.163 0 226.095 183.285 409.381 409.381 409.381s409.381-183.285 409.381-409.381c0-129.149-59.804-244.331-153.23-319.361l-0.799-0.62z" />
<glyph unicode="&#xa2;" glyph-name="View, eye" d="M512 623.244c100.975 0 182.858-81.846 182.858-182.856 0-100.975-81.883-182.858-182.858-182.858s-182.858 81.846-182.858 182.856c0 100.975 81.883 182.858 182.858 182.858zM511.781 739.615c213.432 0 412.087-146.834 512.219-299.19-100.132-152.393-298.568-292.573-512-292.573s-411.868 140.179-512 292.573c100.132 152.356 298.349 299.19 511.781 299.19zM511.998 220.959c152.466 0 330.751 110.592 402.285 219.429-71.534 108.837-250.039 226.086-402.504 226.086s-330.532-117.249-402.064-226.086c71.534-108.837 249.82-219.429 402.285-219.429z" />
<glyph unicode="&#xc1;" glyph-name="Alarm_1, alarm" d="M969.043 161.59c-19.8 16.5-36.3 32.999-49.499 49.499-16.5 16.5-29.699 39.599-46.199 65.999s-29.699 56.099-39.599 89.098c-9.9 29.699-19.8 69.299-26.4 112.197-6.6 46.199-9.9 92.398-9.9 145.197 0 56.099-23.099 108.898-65.999 155.097-42.899 49.499-98.998 75.899-168.297 89.098 3.3 6.6 3.3 13.199 3.3 23.099 0 13.199-6.6 26.4-16.5 36.3-13.199 6.6-26.4 13.199-39.599 13.199s-26.4-6.6-36.3-16.5c-9.9-9.9-16.5-23.099-16.5-36.3 0-6.6 0-13.199 3.3-23.099-69.299-9.9-125.398-39.599-168.297-89.098s-65.999-98.998-65.999-155.097c0-52.799-3.3-98.998-9.9-145.197s-16.5-82.498-26.4-112.197c-9.9-29.699-26.4-59.399-39.599-89.098s-32.999-49.499-46.199-65.999c-16.5-16.5-32.999-32.999-49.499-49.499 0-19.8 6.6-36.3 19.8-49.499s29.699-19.8 49.499-19.8h247.495c0-39.599 13.199-72.598 42.899-98.998 26.4-26.4 59.399-42.899 98.998-42.899s72.598 13.199 98.998 42.899c26.4 26.4 42.899 59.399 42.899 98.998h247.495c19.8 0 36.3 6.6 49.499 19.8 9.9 16.5 16.5 32.999 16.5 52.799v0zM556.552 46.093c-13.199-13.199-26.4-19.8-42.899-19.8 0 0 0 0 0 0s0 0 0 0c-16.5 0-32.999 6.6-42.899 19.8-13.199 13.199-19.8 26.4-19.8 42.899 0 3.3 3.3 6.6 6.6 6.6s112.197 0 115.498 0c3.3 0 6.6-3.3 6.6-6.6-3.3-16.5-9.9-32.999-23.099-42.899z" />
<glyph unicode="&#xc3;" glyph-name="ExpandRight" d="M697.174 332.902l75.674 75.639h-200.841v69.325h201.455l-76.288 76.254 49.152 49.186 155.648-159.813-155.648-159.778-49.152 49.186zM0 887.467v-887.467h1024v887.467zM512 819.2h443.734v-750.934h-443.734z" />
<glyph unicode="&#xc4;" glyph-name="Layers" d="M913.647 520.84l110.353 77.141-512 357.751-512-357.751 110.353-77.141-110.353-77.107 110.353-77.107-110.353-77.107 512-357.786 512 357.786-110.353 77.107 110.353 77.107zM512 884.053l409.6-286.208-409.6-286.106-409.6 286.242zM161.553 485.068l350.447-244.873 350.447 244.873 59.153-41.335-409.6-286.208-409.6 286.208zM921.6 289.519l-409.6-286.106-409.6 286.106 59.153 41.335 350.447-244.873 350.447 244.873z" />
<glyph unicode="&#xc5;" glyph-name="SignOut" d="M260.054 579.438h351.589v159.283l412.357-307.731-412.357-307.696v159.248h-351.589zM595.079 96.485h-415.968c-41.386 0-74.936 33.55-74.936 74.936v0 544.589c0 0.011 0 0.023 0 0.034 0 41.386 33.55 74.936 74.936 74.936 0.012 0 0.025 0 0.036 0h415.932c16.543 0.019 29.948 13.425 29.968 29.966v44.241c-0.019 16.543-13.425 29.948-29.966 29.968h-440c-85.641-0.019-155.061-69.44-155.081-155.079v-592.685c0-0.011 0-0.023 0-0.034 0-85.63 69.417-155.046 155.046-155.046 0.012 0 0.025 0 0.037 0h439.996c16.543 0.019 29.948 13.425 29.968 29.966v44.241c-0.019 16.543-13.425 29.948-29.966 29.968h-0.002z" />
<glyph unicode="&#xc7;" glyph-name="bars, Options, menu" d="M1023.999 145.066v-85.334q0-17.333-12.667-30t-30-12.667h-938.667q-17.333 0-30 12.667t-12.667 30v85.334q0 17.333 12.667 30t30 12.667h938.667q17.333 0 30-12.667t12.667-30zM1023.999 486.399v-85.334q0-17.333-12.667-30t-30-12.667h-938.667q-17.333 0-30 12.667t-12.667 30v85.334q0 17.333 12.667 30t30 12.667h938.667q17.333 0 30-12.667t12.667-30zM1023.999 827.734v-85.334q0-17.333-12.667-30t-30-12.667h-938.667q-17.333 0-30 12.667t-12.667 30v85.334q0 17.333 12.667 30t30 12.667h938.667q17.333 0 30-12.667t12.667-30z" />
<glyph unicode="&#xca;" glyph-name="Job" d="M51.832-34.133v669.014h193.741v143.36h96.904v-143.36h48.435v143.36h96.87v-143.36h48.435v143.36h96.87v-143.36h48.435v143.36h96.87v-143.36h193.774v-669.014zM826.863 395.947l-145.306 95.574h-484.386v-81.919h484.386l145.306-95.574zM826.863 252.587l-145.306 95.574h-484.386v-81.919h484.386l145.306-95.574zM826.863 109.227l-145.306 95.574h-484.386v-81.919h484.386l145.306-95.574zM342.476 921.599h48.435v-143.36h-48.435zM487.782 921.599h48.435v-143.36h-48.435zM633.087 921.599h48.435v-143.36h-48.435z" />
<glyph unicode="&#xcb;" glyph-name="BuildUp" d="M-5.689 147.912v73.958h1035.379v-73.958zM142.222 258.844v110.932h739.555v-110.932zM-5.689 480.712h1035.379v-73.958h-1035.379zM142.222 517.691v110.932h739.555v-110.932zM-5.689 739.554h1035.379v-73.958h-1035.379zM142.222 887.465h739.555v-110.932h-739.555zM881.779 0.001h-739.555v110.932h739.555z" />
<glyph unicode="&#xcc;" glyph-name="RotateCCW90" d="M934.652 181.072c-3.795 234.062-179.49 425.951-406.138 455.1l-2.327 0.244v-137.508l-278.868 173.643 278.868 179.861v-125.249c278.571-30.386 493.964-262.497 497.809-545.702l0.004-0.389zM299.301 358.744c0.646 0.011 1.408 0.018 2.172 0.018 12.747 0 25.059-1.862 36.68-5.329l-0.907 0.232c10.747-3.28 20.078-8.269 28.192-14.726l-0.172 0.131c7.805-6.327 14.322-13.876 19.347-22.411l0.21-0.385c5.047-8.579 9.258-18.495 12.117-28.969l0.2-0.862c2.852-10.197 5.070-22.275 6.213-34.665l0.061-0.828q1.839-19.090 1.809-39.872 0-19.031-1.927-39.464c-1.424-14.899-4.020-28.495-7.751-41.613l0.396 1.624c-3.984-14.202-9.089-26.547-15.439-38.11l0.465 0.925c-6.551-11.99-14.775-22.178-24.506-30.683l-0.129-0.111c-10.376-8.866-22.581-15.962-35.926-20.628l-0.793-0.242c-14.214-4.874-30.591-7.687-47.624-7.687-1.216 0-2.427 0.014-3.635 0.043l0.179-0.003c-7.293 0.002-14.458 0.533-21.465 1.555l0.8-0.096c-7.347 1.004-13.686 2.27-19.886 3.878l1.176-0.259c-5.683 1.403-10.471 2.973-15.102 4.848l0.741-0.265c-3.301 1.201-6.149 2.884-8.62 4.994l0.038-0.032c-1.909 1.963-3.272 4.468-3.837 7.262l-0.016 0.093c-0.793 3.589-1.247 7.712-1.247 11.94 0 0.554 0.008 1.105 0.023 1.655l-0.002-0.081c0 5.312 0 9.574 0.379 12.814 0.105 2.707 0.62 5.261 1.486 7.648l-0.056-0.176c0.473 1.469 1.409 2.679 2.631 3.488l0.025 0.015c1.041 0.535 2.274 0.848 3.578 0.848 0.065 0 0.131-0.001 0.196-0.002h-0.010c3.037-0.192 5.87-0.817 8.52-1.818l-0.201 0.066c3.533-1.109 7.852-2.394 12.902-3.853 4.503-1.344 10.329-2.693 16.26-3.734l1.019-0.148c6.171-1.061 13.279-1.667 20.528-1.667 0.336 0 0.671 0.002 1.006 0.004h-0.051c0.701-0.024 1.525-0.038 2.352-0.038 11.616 0 22.605 2.685 32.38 7.469l-0.436-0.192c9.202 4.72 16.823 11.332 22.581 19.369l0.128 0.188c5.693 8.135 10.099 17.651 12.66 27.898l0.125 0.591c2.64 10.129 4.304 21.828 4.608 33.865l0.004 0.198c-7.704-4.779-16.584-8.917-25.956-11.958l-0.868-0.243c-10.187-3.306-21.909-5.212-34.077-5.212-0.673 0-1.344 0.006-2.014 0.018l0.101-0.002c-0.872-0.022-1.9-0.035-2.93-0.035-14.074 0-27.588 2.397-40.156 6.804l0.851-0.259c-11.21 4.031-20.701 10.497-28.201 18.796l-0.053 0.059c-7.237 8.31-12.705 18.359-15.699 29.424l-0.121 0.524c-3.123 11.323-4.917 24.324-4.917 37.744 0 0.707 0.005 1.413 0.015 2.117l-0.001-0.107c-0.005 0.403-0.007 0.88-0.007 1.357 0 14.954 2.568 29.311 7.289 42.649l-0.276-0.895c9.103 26.247 29.091 46.667 54.42 56.156l0.63 0.207c13.489 5.168 29.092 8.161 45.394 8.161 0.747 0 1.493-0.006 2.237-0.019l-0.112 0.002zM254.263 233.233c1.33-6.17 3.848-11.601 7.319-16.283l-0.080 0.113c3.33-4.239 7.698-7.518 12.727-9.475l0.203-0.069c5.363-1.988 11.558-3.139 18.021-3.139 0.457 0 0.914 0.006 1.369 0.018l-0.067-0.002c0.165-0.002 0.361-0.002 0.556-0.002 9.264 0 18.165 1.55 26.46 4.405l-0.571-0.171c8.431 2.821 15.75 6.623 22.339 11.375l-0.243-0.167c0.014 1.030 0.022 2.248 0.022 3.466 0 14.031-1.069 27.812-3.131 41.267l0.19-1.504c-1.485 10.368-4.557 19.732-8.988 28.279l0.231-0.49c-3.327 6.268-8.327 11.268-14.408 14.504l-0.187 0.091c-5.984 2.746-12.983 4.348-20.356 4.348-7.040 0-13.737-1.46-19.809-4.093l0.322 0.125c-5.427-2.657-9.946-6.41-13.418-10.999l-0.067-0.093c-3.616-4.866-6.401-10.592-8.009-16.792l-0.075-0.342c-1.69-6.278-2.66-13.486-2.66-20.921 0-0.29 0.002-0.579 0.005-0.868v0.044c-0.004-0.344-0.006-0.75-0.006-1.157 0-7.595 0.843-14.993 2.439-22.106l-0.127 0.67zM464.13 314.757c8.81 13.851 20.804 24.948 34.992 32.45l0.502 0.242c14.555 7.195 31.689 11.406 49.806 11.406 1.208 0 2.41-0.018 3.609-0.056l-0.176 0.004c1.21 0.045 2.631 0.072 4.058 0.072 17.88 0 34.807-4.086 49.896-11.375l-0.686 0.3c14.041-7.342 25.406-18.126 33.24-31.261l0.21-0.379c8.415-14.544 14.451-31.556 17.072-49.674l0.091-0.765c3.074-19.23 4.83-41.401 4.83-63.983 0-1.232-0.006-2.461-0.016-3.69l0.002 0.188c0.009-0.921 0.014-2.010 0.014-3.102 0-22.82-2.193-45.128-6.381-66.724l0.354 2.194c-3.577-19.395-10.448-36.671-20.065-52.052l0.362 0.622c-8.803-13.831-20.799-24.902-34.991-32.363l-0.502-0.241c-14.644-7.25-31.884-11.491-50.118-11.491-1.19 0-2.377 0.018-3.558 0.054l0.173-0.004c-1.225-0.047-2.664-0.074-4.109-0.074-17.824 0-34.694 4.087-49.723 11.375l0.679-0.297c-13.982 7.352-25.296 18.123-33.094 31.231l-0.21 0.381c-8.424 14.552-14.497 31.565-17.185 49.683l-0.096 0.785c-3.148 19.219-4.948 41.369-4.948 63.941 0 1.256 0.006 2.511 0.017 3.765l-0.002-0.192c-0.009 0.892-0.014 1.947-0.014 3.003 0 22.808 2.236 45.095 6.502 66.652l-0.358-2.17c3.642 19.452 10.538 36.769 20.159 52.212l-0.369-0.634zM504.965 143.682c1.239-12.817 4.184-24.6 8.624-35.621l-0.305 0.856c2.924-7.573 7.991-13.779 14.453-18.039l0.14-0.087c5.839-3.281 12.817-5.214 20.246-5.214 0.435 0 0.868 0.006 1.3 0.020l-0.063-0.002c0.318-0.009 0.691-0.014 1.065-0.014 5.613 0 10.975 1.077 15.89 3.034l-0.29-0.102c5.018 2.114 9.258 5.185 12.666 9.013l0.030 0.035c3.76 4.312 6.821 9.354 8.933 14.865l0.115 0.342c2.375 6.027 4.4 13.163 5.731 20.539l0.106 0.71c1.534 7.884 2.66 17.261 3.133 26.81l0.019 0.481q0.817 15.236 0.847 33.567 0 22.241-1.196 39.259c-0.718 11.028-2.058 21.162-4.013 31.076l0.248-1.508c-1.52 8.064-3.693 15.187-6.539 21.957l0.263-0.707c-2.202 5.395-5.261 10.009-9.057 13.903l0.009-0.009c-3.297 3.281-7.348 5.806-11.871 7.295l-0.214 0.061c-4.302 1.391-9.252 2.192-14.389 2.192-0.206 0-0.411-0.002-0.616-0.004h0.031c-0.449 0.019-0.977 0.030-1.507 0.030-8.241 0-15.878-2.59-22.141-7l0.122 0.081c-6.605-5.311-11.646-12.31-14.496-20.348l-0.098-0.318c-3.802-10.029-6.503-21.659-7.581-33.758l-0.037-0.508c-1.382-13.468-2.169-29.101-2.169-44.92 0-1.026 0.003-2.053 0.010-3.078l-0.001 0.157c-0.020-1.619-0.032-3.533-0.032-5.447 0-17.473 0.955-34.723 2.816-51.7l-0.187 2.097zM702.398 359.124c5.829 6.298 12.999 11.265 21.065 14.459l0.389 0.136c8.446 3.302 18.224 5.215 28.45 5.215 0.619 0 1.236-0.007 1.852-0.021l-0.092 0.002c0.511 0.011 1.113 0.018 1.715 0.018 9.837 0 19.283-1.674 28.068-4.752l-0.595 0.181c8.072-2.92 14.923-7.526 20.403-13.424l0.030-0.032c5.412-6.055 9.553-13.368 11.926-21.437l0.1-0.396c2.509-8.431 3.952-18.117 3.952-28.14 0-0.543-0.004-1.085-0.013-1.626l0.001 0.081c0.003-0.295 0.005-0.642 0.005-0.99 0-10.061-1.539-19.763-4.393-28.884l0.184 0.684c-2.781-8.823-7.17-16.437-12.87-22.861l0.056 0.065c-5.824-6.396-13.031-11.428-21.156-14.636l-0.384-0.133c-8.502-3.319-18.345-5.241-28.637-5.241-0.574 0-1.146 0.006-1.717 0.018l0.085-0.002c-0.524-0.011-1.143-0.018-1.762-0.018-9.827 0-19.256 1.707-28.006 4.841l0.579-0.181c-8.057 2.984-14.9 7.601-20.405 13.484l-0.027 0.030c-5.462 6.041-9.634 13.357-12.014 21.441l-0.099 0.392c-2.509 8.405-3.952 18.062-3.952 28.057 0 0.532 0.004 1.062 0.011 1.591l-0.001-0.080c-0.004 0.314-0.006 0.686-0.006 1.058 0 10.104 1.571 19.841 4.482 28.982l-0.186-0.675c2.809 8.835 7.248 16.45 13.010 22.852l-0.049-0.056zM723.209 291.406c0.966-5.12 2.711-9.682 5.13-13.803l-0.109 0.2c2.249-3.8 5.421-6.841 9.214-8.87l0.126-0.061c3.977-1.998 8.667-3.168 13.63-3.168 0.339 0 0.677 0.006 1.013 0.016l-0.049-0.002c0.207-0.005 0.45-0.008 0.694-0.008 4.811 0 9.371 1.079 13.449 3.008l-0.192-0.081c3.975 1.936 7.245 4.776 9.637 8.265l0.054 0.083c2.566 3.805 4.517 8.261 5.585 13.051l0.049 0.259c1.172 5.074 1.844 10.9 1.844 16.883 0 0.324-0.002 0.648-0.006 0.971l0.001-0.049c0.002 0.195 0.002 0.425 0.002 0.656 0 5.825-0.543 11.523-1.579 17.047l0.089-0.569c-0.9 5.106-2.643 9.667-5.092 13.755l0.101-0.182c-2.299 3.797-5.468 6.854-9.243 8.955l-0.126 0.065c-3.952 2.053-8.63 3.257-13.589 3.257-0.354 0-0.707-0.006-1.057-0.018l0.051 0.002c-0.188 0.004-0.409 0.006-0.631 0.006-4.773 0-9.294-1.079-13.333-3.006l0.187 0.081c-3.988-1.978-7.266-4.854-9.665-8.378l-0.056-0.086c-2.609-3.823-4.624-8.291-5.782-13.093l-0.057-0.276c-1.21-5.085-1.903-10.922-1.903-16.922 0-0.31 0.002-0.621 0.006-0.931l-0.001 0.047c0-0.067 0-0.146 0-0.225 0-5.95 0.584-11.764 1.699-17.386l-0.093 0.565zM0 216.536h141.302v-70.637h-141.302z" />
<glyph unicode="&#xcf;" glyph-name="CalendarWeek" d="M740.375 920.627l-0.003 0.084c-0.907 18.896-16.134 34.037-35.138 34.81v0.212h-0.989v-0.212l-0.072-0.002c-18.924-0.772-34.142-15.916-35.034-34.892l-0.177-95.075c0-19.505 15.812-35.318 35.318-35.318h0.954c19.505 0 35.318 15.812 35.318 35.318zM316.704 825.552v0c0-19.505-15.812-35.318-35.318-35.318h-0.954c-19.505 0-35.318 15.812-35.318 35.318l0.212 95.075 0.003 0.082c0.889 18.893 16.107 34.038 35.103 34.812v0.212h0.989v-0.212l0.072-0.002c18.931-0.771 34.159-15.912 35.069-34.892zM882.811 849.992l-0.224-0.008c1.583 0.073 3.175 0.11 4.776 0.11 56.059 0 101.503-45.444 101.503-101.503 0-1.601-0.037-3.193-0.102-4.552v-812.306h-953.577v812.306l0.004-0.166c-0.037 1.142-0.056 2.289-0.056 3.44 0 53.356 40.492 97.255 92.867 102.68h81.831v-24.44c0-39.011 31.625-70.635 70.635-70.635s70.635 31.625 70.635 70.635v24.44h282.541v-24.44c0-39.011 31.625-70.635 70.635-70.635s70.635 31.625 70.635 70.635v24.44h107.895zM918.128 673.404h-812.306v-671.035h812.306zM275.947 463.193h141.906l-131.064-267.213h63.713l133.677 279.645 0.918 40.686h-209.151v-53.118zM735.748 206.54c-1.589 17.235-1.801 43.088-1.801 56.967v280.563h-60.040v-118.632c-15.476 11.919-35.136 19.103-56.473 19.103-0.845 0-1.686-0.011-2.526-0.034l0.124 0.003c-0.061 0-0.133 0-0.204 0-28.78 0-54.809-11.781-73.526-30.784l-0.013-0.013c-22.626-24.418-36.507-57.22-36.507-93.265 0-2.102 0.047-4.194 0.141-6.273l-0.011 0.295c0-71.624 44.359-123.612 105.494-123.612 0.463-0.008 1.009-0.012 1.557-0.012 26.176 0 49.935 10.344 67.415 27.166l-0.031-0.030 1.060-22.038h56.332zM621.954 243.093c-41.71 0-56.508 37.825-56.508 73.213 0 46.761 22.603 76.957 57.497 76.957 0.057 0 0.124 0 0.192 0 24.175 0 44.366-17.057 49.195-39.792l0.059-0.329c0.971-4.054 1.529-8.709 1.529-13.494 0-0.384-0.004-0.767-0.011-1.15l0.001 0.057v-38.849c0.012-0.454 0.019-0.987 0.019-1.523 0-4.898-0.586-9.658-1.693-14.215l0.084 0.411c-5.039-23.61-25.632-41.091-50.342-41.286h-0.021z" />
<glyph unicode="&#xd3;" glyph-name="Hours12" d="M642.638 928.376c-40.407 11.343-86.809 17.864-134.735 17.864-144.439 0-275.045-59.227-368.857-154.719l-0.074-0.076-106.221 79.722-6.479-394.173 120.863 35.31c-3.807-17.817-6.419-38.687-7.266-60.012l-0.023-0.727-139.846-22.709 3.239-30.418c25.099-212.583 176.488-383.969 376.116-438.299l3.61-0.837c40.896-11.451 87.861-18.046 136.363-18.076h0.017c0.057 0 0.124 0 0.191 0 92.405 0 179.099 24.454 253.961 67.246l-2.513-1.323c115.82 65.062 201.393 172.383 236.513 300.562l0.808 3.458c9.969 37.606 15.695 80.779 15.695 125.291 0 235.55-160.334 433.651-377.82 491.122l-3.543 0.796zM490.224 341.067c0.010 0 0.021 0 0.032 0 1.675 0 3.22-0.56 4.456-1.503l-0.018 0.013c1.539-1.23 2.737-2.823 3.472-4.653l0.027-0.077c1.079-2.489 1.848-5.373 2.16-8.393l0.011-0.127c0.436-3.598 0.685-7.764 0.685-11.988 0-0.341-0.002-0.681-0.005-1.022v0.052c0.005-0.349 0.008-0.762 0.008-1.176 0-4.156-0.297-8.242-0.871-12.239l0.054 0.457c-0.42-3.124-1.227-5.953-2.38-8.596l0.080 0.206c-0.746-1.776-1.848-3.272-3.224-4.457l-0.016-0.013c-1.195-0.831-2.678-1.329-4.277-1.329-0.023 0-0.045 0-0.068 0h-193.325c-1.523 0.010-2.927 0.506-4.069 1.341l0.020-0.014c-1.464 1.179-2.621 2.678-3.373 4.396l-0.029 0.075c-1.078 2.442-1.875 5.274-2.252 8.237l-0.016 0.153c-0.54 3.595-0.848 7.744-0.848 11.963 0 0.349 0.002 0.699 0.006 1.047l-0.001-0.053c-0.003 0.289-0.005 0.629-0.005 0.97 0 4.225 0.249 8.39 0.732 12.484l-0.048-0.497c0.341 3.151 1.107 6.033 2.246 8.72l-0.076-0.2c0.779 1.878 1.936 3.461 3.386 4.716l0.016 0.014c1.113 0.928 2.559 1.493 4.136 1.493 0.061 0 0.121-0.001 0.181-0.003h65.201v227.829l-56.269-31.099c-2.922-1.569-6.31-2.831-9.878-3.612l-0.262-0.048c-0.499-0.133-1.071-0.21-1.661-0.21-1.78 0-3.397 0.697-4.594 1.832l0.003-0.003c-1.816 2.161-3 4.908-3.236 7.92l-0.003 0.049c-0.523 4.28-0.821 9.233-0.821 14.258 0 0.603 0.004 1.204 0.013 1.804l-0.001-0.091q0 6.479 0.291 10.69c0.102 2.594 0.593 5.041 1.414 7.329l-0.053-0.171c0.657 1.904 1.663 3.537 2.954 4.898l-0.006-0.006c1.534 1.461 3.218 2.795 5.017 3.967l0.134 0.082 75.219 48.591c0.921 0.749 1.997 1.353 3.166 1.76l0.075 0.023c1.518 0.479 3.308 0.855 5.151 1.058l0.129 0.012c2.138 0.259 4.989 0.453 8.52 0.551s8.066 0 13.638 0c6.867 0 12.407 0 16.651-0.421 3.508-0.124 6.843-0.601 10.051-1.398l-0.333 0.070c1.745-0.366 3.231-1.292 4.298-2.579l0.010-0.013c0.693-1.086 1.105-2.41 1.105-3.83 0-0.078-0.001-0.154-0.004-0.231v0.011-289.249zM551.092 331.349c0.498 4.216 1.547 8.059 3.084 11.642l-0.104-0.272c1.665 3.72 3.516 6.912 5.652 9.884l-0.113-0.166c2.844 3.844 5.733 7.235 8.833 10.421l-0.022-0.023 60.61 64.789c10.204 10.483 19.764 21.739 28.531 33.614l0.624 0.885c6.058 8.206 11.806 17.509 16.775 27.276l0.524 1.134c3.525 6.803 6.454 14.702 8.383 22.984l0.136 0.696c1.428 6.169 2.264 13.262 2.3 20.545v0.026c0 0.075 0.001 0.163 0.001 0.251 0 5.968-1.032 11.695-2.929 17.012l0.11-0.353c-1.935 5.401-4.791 10.039-8.415 13.956l0.025-0.026c-3.822 3.99-8.468 7.159-13.668 9.237l-0.262 0.092c-5.446 2.064-11.744 3.259-18.321 3.259-0.506 0-1.011-0.007-1.513-0.022l0.074 0.002c-0.471 0.009-1.026 0.014-1.584 0.014-9.531 0-18.715-1.486-27.332-4.238l0.636 0.176c-8.41-2.733-15.567-5.805-22.383-9.431l0.744 0.361c-6.195-3.261-11.279-6.313-16.189-9.604l0.64 0.404c-2.684-2.156-5.991-3.646-9.611-4.167l-0.107-0.013c-0.019 0-0.040 0-0.063 0-1.602 0-3.062 0.616-4.153 1.624l0.004-0.004c-1.363 1.466-2.352 3.298-2.804 5.333l-0.015 0.077c-0.82 2.932-1.441 6.386-1.735 9.933l-0.014 0.207c-0.437 4.29-0.685 9.272-0.685 14.312 0 0.435 0.002 0.869 0.006 1.304v-0.067c0 4.178 0 7.613 0.389 10.431 0.257 2.749 0.692 5.242 1.304 7.665l-0.074-0.343c0.532 2.054 1.275 3.854 2.228 5.519l-0.057-0.109c1.37 2.107 2.932 3.926 4.704 5.517l0.026 0.023c3.622 3.085 7.704 5.822 12.083 8.063l0.356 0.166c6.24 3.432 13.611 6.713 21.263 9.396l1.057 0.323c7.988 2.954 17.761 5.717 27.793 7.769l1.362 0.233c9.885 2.061 21.245 3.24 32.879 3.24 0.148 0 0.296 0 0.446-0.001h-0.024c0.826 0.017 1.802 0.026 2.778 0.026 16.060 0 31.529-2.533 46.029-7.222l-1.058 0.295c13.127-4.257 24.452-10.824 34.052-19.299l-0.103 0.089c8.695-7.889 15.553-17.638 19.964-28.633l0.184-0.522c4.204-10.585 6.642-22.852 6.642-35.687 0-0.164 0-0.327-0.001-0.491v0.026c-0.001-11.862-1.181-23.449-3.427-34.648l0.187 1.121c-2.992-13.46-7.661-25.362-13.875-36.271l0.334 0.637c-9.075-15.978-18.656-29.751-29.336-42.576l0.375 0.463c-16.107-19.552-32.256-37.138-49.288-53.826l-0.113-0.111-40.914-41.886h138c1.885-0.004 3.628-0.61 5.046-1.637l-0.026 0.018c1.692-1.307 3.026-2.995 3.888-4.94l0.032-0.081c1.182-2.604 2.039-5.626 2.415-8.795l0.014-0.146c0.518-3.638 0.814-7.84 0.814-12.11 0-0.298-0.001-0.596-0.004-0.893v0.045c0.003-0.299 0.005-0.653 0.005-1.006 0-4.359-0.249-8.66-0.733-12.89l0.048 0.517c-0.355-3.361-1.063-6.435-2.096-9.354l0.087 0.284c-0.683-2.031-1.91-3.728-3.507-4.971l-0.024-0.018c-1.33-0.933-2.981-1.491-4.764-1.491-0.033 0-0.067 0-0.1 0.001h-201.293c-0.204-0.004-0.445-0.006-0.685-0.006-3.397 0-6.704 0.392-9.876 1.132l0.292-0.058c-2.82 0.668-5.225 2.157-7.016 4.196l-0.013 0.015c-1.983 2.509-3.373 5.576-3.906 8.927l-0.015 0.111c-0.791 4.217-1.243 9.067-1.243 14.024 0 0.502 0.005 1.003 0.014 1.502l-0.001-0.075c-0.001 0.217-0.002 0.473-0.002 0.729 0 5.062 0.295 10.055 0.868 14.962l-0.057-0.597zM945.72 328.11c-31.286-114.414-105.709-207.679-204.265-263.096l-2.152-1.113c-63.687-36.102-139.88-57.379-221.043-57.379-220.629 0-404.537 157.219-445.804 365.736l-0.476 2.887 70.393 11.468c0.551-3.239 1.328-6.187 1.944-9.265 30.164-181.555 186.049-318.273 373.867-318.273 209.162 0 378.722 169.559 378.722 378.722s-169.559 378.722-378.722 378.722c-0.127 0-0.253 0-0.38 0h0.020c-46.683-0.085-91.332-8.692-132.508-24.346l2.574 0.86c-63.684-21.652-117.571-58.036-159.572-105.233l-0.326-0.373-23.356-26.401 61.841-46.389-174.055-50.794 3.013 179.27 52.511-39.424 19.761 23.13c83.146 95.038 204.656 154.73 340.108 154.73 42.004 0 82.668-5.741 121.25-16.479l-3.173 0.754c193.155-50.611 333.351-223.6 333.351-429.335 0-38.589-4.932-76.027-14.201-111.715l0.679 3.079z" />
<glyph unicode="&#xd7;" glyph-name="Factory" d="M768.001 919.162v-438.857h-73.143v292.572l-329.143-292.572h-36.572v292.572l-329.143-292.572v-512h1024v950.857zM219.429 78.019h-109.714v109.714h109.714zM219.429 260.876h-109.714v109.714h109.714zM402.286 78.019h-109.714v109.714h109.714zM402.286 260.876h-109.714v109.714h109.714zM585.144 78.019h-109.714v109.714h109.714zM585.144 260.876h-109.714v109.714h109.714z" />
<glyph unicode="&#xd9;" glyph-name="Timer" d="M649.815 590.874l-183.21-183.279c-9.038-9.348-14.608-22.099-14.608-36.152 0-28.74 23.299-52.039 52.039-52.039 14.052 0 26.803 5.57 36.167 14.622l-0.015-0.014 183.21 183.21c9.038 9.348 14.608 22.099 14.608 36.152 0 28.74-23.299 52.039-52.039 52.039-14.052 0-26.803-5.57-36.167-14.622l0.015 0.014zM645.687 955.733h-289.751v-84.51h289.751zM884.543 725.758l37.224-37.156 59.74 59.775-137.832 137.729-59.74-59.74 42.152-42.152-42.498-42.533c-77.41 62.781-177.128 100.795-285.726 100.795-251.495 0-455.371-203.877-455.371-455.371s203.877-455.371 455.371-455.371c251.495 0 455.371 203.877 455.371 455.371 0 113.83-41.766 217.906-110.811 297.738l0.488-0.577zM863 388.34c0-0.010 0-0.023 0-0.035 0-200.031-162.157-362.188-362.188-362.188s-362.188 162.157-362.188 362.188c0 200.031 162.157 362.188 362.188 362.188v0c0.010 0 0.023 0 0.035 0 200.012 0 362.153-162.141 362.153-362.153v0z" />
<glyph unicode="&#xdb;" glyph-name="JobList" d="M68.268 887.465v-887.468h887.468v887.468zM896.569 59.163h-769.139v769.139h769.139zM245.761 828.303h88.748v-88.748h-88.748v88.748zM689.493 828.303h88.748v-88.748h-88.748v88.748zM778.24 680.392v-59.163h-88.748v59.163h-354.988v-59.163h-88.748v59.163h-59.163v-118.329h650.808v118.329h-59.163zM778.24 473.314v-59.163h-88.748v59.163h-354.988v-59.163h-88.748v59.163h-59.163v-118.329h650.808v118.329h-59.163zM778.24 266.242v-59.163h-88.748v59.163h-354.988v-59.163h-88.748v59.163h-59.163v-118.329h650.808v118.329h-59.163z" />
<glyph unicode="&#xdc;" glyph-name="Hours24" d="M609.79 422.41h92.388v160.254h-0.551l-91.838-160.254zM642.638 928.376c-40.407 11.343-86.809 17.864-134.735 17.864-144.439 0-275.045-59.227-368.857-154.719l-0.074-0.076-106.221 79.722-6.479-394.173 120.863 35.31c-3.807-17.817-6.419-38.687-7.266-60.012l-0.023-0.727-139.846-22.709 3.239-30.418c25.099-212.583 176.488-383.969 376.116-438.299l3.61-0.837c40.896-11.451 87.861-18.046 136.363-18.076h0.017c0.057 0 0.124 0 0.191 0 92.405 0 179.099 24.454 253.961 67.246l-2.513-1.323c115.82 65.062 201.393 172.383 236.513 300.562l0.808 3.458c9.969 37.606 15.695 80.779 15.695 125.291 0 235.55-160.334 433.651-377.82 491.122l-3.543 0.796zM945.72 327.851c-31.286-114.414-105.709-207.679-204.265-263.096l-2.152-1.113c-63.687-36.102-139.88-57.379-221.043-57.379-220.629 0-404.537 157.219-445.804 365.736l-0.476 2.887 70.393 11.468c0.551-3.239 1.328-6.187 1.944-9.265 30.275-181.43 186.099-318.014 373.825-318.014 209.162 0 378.722 169.559 378.722 378.722s-169.559 378.722-378.722 378.722c-0.112 0-0.224 0-0.336 0h0.018c-46.683-0.085-91.332-8.692-132.508-24.346l2.574 0.86c-63.684-21.652-117.571-58.036-159.572-105.233l-0.326-0.373-23.356-26.401 61.841-46.389-174.055-50.794 3.013 179.27 52.511-39.424 19.761 23.13c83.146 95.038 204.656 154.73 340.108 154.73 42.004 0 82.668-5.741 121.25-16.479l-3.173 0.754c193.155-50.611 333.351-223.601 333.351-429.335 0-38.589-4.932-76.027-14.201-111.715l0.679 3.079zM420.316 557.85c-1.916 5.38-4.761 9.999-8.38 13.889l0.023-0.025c-3.797 3.986-8.424 7.146-13.606 9.207l-0.259 0.090c-5.423 2.064-11.694 3.259-18.245 3.259-0.499 0-0.996-0.007-1.492-0.021l0.073 0.002c-0.471 0.009-1.025 0.014-1.582 0.014-9.486 0-18.625-1.486-27.197-4.238l0.629 0.175c-8.364-2.699-15.49-5.75-22.272-9.36l0.73 0.354c-6.177-3.259-11.24-6.3-16.132-9.576l0.648 0.408c-2.68-2.165-5.989-3.655-9.613-4.167l-0.105-0.012c-0.024 0-0.052-0.001-0.080-0.001-1.587 0-3.029 0.616-4.101 1.623l0.003-0.003c-1.357 1.458-2.345 3.279-2.804 5.3l-0.015 0.078c-0.781 2.888-1.398 6.329-1.73 9.852l-0.020 0.254c-0.437 4.272-0.685 9.231-0.685 14.248 0 0.435 0.002 0.869 0.006 1.303v-0.067c-0.003 0.304-0.005 0.663-0.005 1.023 0 3.289 0.155 6.543 0.457 9.753l-0.031-0.41c0.243 2.729 0.666 5.213 1.27 7.625l-0.072-0.337c0.517 2.039 1.261 3.829 2.224 5.477l-0.054-0.099c1.369 2.103 2.919 3.921 4.675 5.519l0.023 0.021c3.614 3.065 7.686 5.79 12.048 8.028l0.359 0.168c6.231 3.455 13.57 6.738 21.197 9.406l1.025 0.312c7.975 2.934 17.749 5.686 27.78 7.735l1.375 0.235c9.847 2.061 21.161 3.24 32.751 3.24 0.136 0 0.273 0 0.409-0.001h-0.021c1.095 0.028 2.385 0.045 3.677 0.045 15.647 0 30.731-2.409 44.902-6.876l-1.057 0.288c13.069-4.232 24.341-10.779 33.886-19.231l-0.099 0.086c8.694-7.875 15.536-17.63 19.903-28.636l0.182-0.518c4.105-10.448 6.484-22.548 6.484-35.203 0-0.356-0.002-0.712-0.006-1.069v0.054c0-0.068 0-0.148 0-0.229 0-11.737-1.18-23.197-3.426-34.271l0.186 1.101c-2.951-13.371-7.589-25.2-13.772-36.032l0.329 0.625c-8.998-15.982-18.538-29.758-29.199-42.568l0.368 0.455c-16.048-19.358-32.164-36.797-49.155-53.339l-0.148-0.144-40.623-41.659h137.384c0.013 0 0.028 0 0.043 0 1.85 0 3.558-0.608 4.935-1.636l-0.022 0.016c1.692-1.284 3.027-2.951 3.888-4.877l0.031-0.079c1.157-2.592 2.011-5.599 2.413-8.747l0.017-0.161c0.517-3.71 0.812-7.996 0.812-12.351 0-0.213-0.001-0.426-0.002-0.639v0.032c0.003-0.299 0.005-0.653 0.005-1.006 0-4.348-0.249-8.638-0.733-12.855l0.048 0.515c-0.349-3.333-1.070-6.383-2.127-9.272l0.085 0.267c-0.657-2.035-1.876-3.737-3.475-4.971l-0.024-0.018c-1.337-0.932-2.995-1.491-4.784-1.491-0.015 0-0.030 0-0.045 0h-200.389c-0.22-0.004-0.478-0.007-0.738-0.007-3.37 0-6.645 0.404-9.781 1.166l0.283-0.058c-2.813 0.639-5.213 2.122-6.983 4.163l-0.014 0.016c-1.988 2.496-3.378 5.553-3.906 8.897l-0.014 0.109c-0.772 4.152-1.214 8.929-1.214 13.809 0 0.544 0.006 1.085 0.017 1.626l-0.001-0.080c-0.004 0.364-0.006 0.794-0.006 1.225 0 4.934 0.296 9.798 0.872 14.577l-0.057-0.576c0.547 4.169 1.626 7.95 3.182 11.475l-0.105-0.266c1.626 3.714 3.479 6.908 5.641 9.863l-0.101-0.144c2.81 3.837 5.678 7.219 8.766 10.386l-0.020-0.020 60.318 64.789c10.242 10.436 19.802 21.641 28.551 33.482l0.604 0.857c6.029 8.168 11.755 17.427 16.709 27.147l0.524 1.133c3.498 6.771 6.416 14.637 8.349 22.881l0.138 0.702c1.408 6.121 2.243 13.168 2.3 20.401v0.040c-0.054 6-1.154 11.727-3.126 17.030l0.113-0.346zM801.273 422.248c2.883 0 5.345-2.203 7.419-6.479 2.104-5.639 3.321-12.154 3.321-18.953 0-1.059-0.029-2.111-0.087-3.155l0.007 0.145c0.037-0.78 0.058-1.694 0.058-2.613 0-6.525-1.065-12.8-3.029-18.664l0.121 0.414c-1.879-4.762-4.439-7.126-7.678-7.126h-30.968v-63.039c0.001-0.051 0.002-0.111 0.002-0.171 0-1.724-0.612-3.305-1.631-4.538l0.010 0.012c-1.491-1.553-3.405-2.69-5.557-3.223l-0.079-0.017c-3.065-0.98-6.644-1.703-10.337-2.027l-0.191-0.014c-4.276-0.421-9.718-0.648-16.683-0.648s-11.889 0.227-16.197 0.648c-3.861 0.315-7.431 1.038-10.833 2.134l0.338-0.094c-2.161 0.543-4.004 1.682-5.401 3.23l-0.009 0.010c-0.913 1.258-1.459 2.832-1.459 4.535 0 0.057 0.001 0.114 0.002 0.171v-0.009 63.071h-133.561c-0.128-0.003-0.277-0.004-0.427-0.004-2.252 0-4.423 0.345-6.464 0.985l0.153-0.041c-2.173 0.781-3.917 2.306-4.965 4.26l-0.024 0.048c-1.496 2.818-2.54 6.107-2.936 9.591l-0.012 0.127c-0.608 4.481-0.955 9.66-0.955 14.921 0 0.676 0.006 1.352 0.018 2.025l-0.001-0.101c0 5.734 0 10.723 0.389 14.934 0.262 4.284 0.747 8.221 1.453 12.078l-0.093-0.61c0.668 3.703 1.601 6.964 2.814 10.086l-0.126-0.367c1.524 3.915 3.016 7.116 4.679 10.209l-0.241-0.491 108.294 191.127c1.099 1.803 2.653 3.231 4.504 4.15l0.064 0.028c2.612 1.321 5.642 2.355 8.827 2.948l0.211 0.032c4.259 0.867 9.299 1.492 14.438 1.74l0.236 0.009c5.928 0.356 12.957 0.518 21.542 0.518q13.736 0 23.421-0.68c5.649-0.288 10.955-1.051 16.090-2.258l-0.605 0.12c3.224-0.685 6.070-1.946 8.564-3.679l-0.077 0.051c1.602-1.164 2.643-3.015 2.689-5.111v-209.825z" />
<glyph unicode="&#xdd;" glyph-name="EmailAddress" d="M780.178 721.803l-83.887-424.514c-1.402-5.574-2.368-12.072-2.685-18.742l-0.010-0.231c-0.014-0.283-0.024-0.611-0.024-0.945 0-5.657 2.599-10.704 6.668-14.016l0.034-0.026c4.97-3.427 11.121-5.472 17.752-5.472 0.816 0 1.624 0.031 2.425 0.093l-0.107-0.007c25.972 1.373 49.822 9.385 70.207 22.355l-0.587-0.349c39.478 22.654 71.536 54.155 94.201 91.935l0.651 1.171c23.43 39.873 37.268 87.826 37.268 139.008 0 2.937-0.044 5.863-0.136 8.779l0.012-0.425c0.15 3.394 0.237 7.373 0.237 11.375 0 85.667-39.52 162.103-101.326 212.070l-0.516 0.403c-69.197 51.749-156.445 82.859-250.96 82.859-7.693 0-15.335-0.205-22.926-0.612l1.058 0.044c-2.080 0.029-4.538 0.044-6.998 0.044-80.766 0-157.364-17.827-226.081-49.762l3.313 1.382c-67.014-30.452-121.486-78.629-158.806-138.589l-0.883-1.525c-35.195-56.744-56.056-125.58-56.056-199.288 0-1.285 0.007-2.566 0.018-3.848l-0.002 0.196c-0.191-4.245-0.3-9.22-0.3-14.224 0-104.262 47.286-197.48 121.582-259.377l0.544-0.441c80.073-63.358 182.518-101.634 293.904-101.634 7.253 0 14.467 0.162 21.641 0.482l-1.019-0.037c0.68-0.003 1.484-0.004 2.291-0.004 63.657 0 125.16 9.218 183.248 26.392l-4.564-1.157c63.52 18.825 118.916 44.437 169.596 76.785l-2.659-1.588h137.648c-30.921-30.129-65.208-57.084-102.163-80.163l-2.55-1.484c-48.85-28.881-105.295-53.096-164.904-69.721l-4.991-1.188c-60.649-17.406-130.311-27.414-202.309-27.414-2.063 0-4.124 0.009-6.183 0.024l0.315-0.002c-3.184-0.056-6.938-0.088-10.699-0.088-97.066 0-189.188 21.165-272.006 59.125l4.073-1.672c-79.893 36.244-145.373 92.333-191.967 162.104l-1.035 1.645c-43.56 65.014-69.519 145.009-69.519 231.070 0 1.089 0.005 2.178 0.014 3.264l-0.001-0.167c-0.014 1.252-0.020 2.73-0.020 4.213 0 89.325 26.924 172.361 73.102 241.437l-0.993-1.581c47.693 72.271 112.576 129.623 188.987 167.062l2.802 1.239c78.437 37.087 170.397 58.741 267.416 58.741 5.598 0 11.179-0.071 16.742-0.215l-0.823 0.016c7.062 0.338 15.336 0.53 23.658 0.53 120.992 0 232.509-40.563 321.693-108.834l-1.271 0.936c81.037-62.923 132.688-160.363 132.688-269.868 0-2.708-0.032-5.41-0.095-8.105l0.008 0.4c0.010-0.917 0.014-2.001 0.014-3.087 0-67.245-19.246-129.996-52.53-183.046l0.842 1.439c-37.023-57.709-88.579-103.171-149.581-131.868l-2.182-0.922c-42.075-22.378-91.781-36.104-144.552-37.551l-0.454-0.011c-1.505-0.064-3.27-0.097-5.041-0.097-22.26 0-43.199 5.658-61.46 15.611l0.673-0.338c-17.587 11.025-30.826 27.593-37.379 47.217l-0.18 0.625c-23.6-19.413-50.619-35.964-79.774-48.49l-2.177-0.831c-23.146-9.035-49.941-14.271-77.959-14.271-0.604 0-1.207 0.003-1.807 0.008l0.093-0.001c-1.083-0.018-2.362-0.031-3.643-0.031-58.266 0-111.212 22.779-150.418 59.917l0.098-0.094c-40.13 40-64.962 95.326-64.962 156.455 0 5.023 0.168 10.006 0.498 14.947l-0.037-0.669c-0.003 0.552-0.005 1.203-0.005 1.855 0 89.563 31.152 171.847 83.209 236.615l-0.572-0.736c45.901 64.597 120.459 106.234 204.737 106.234 0.049 0 0.097 0 0.15 0h-0.009c1.172 0.026 2.551 0.041 3.934 0.041 29.159 0 56.787-6.561 81.484-18.288l-1.154 0.493c29.176-15.724 53.653-36.448 73.151-61.27l0.377-0.499 12.102 60.704zM333.015 370.248c-0.17-2.547-0.265-5.525-0.265-8.522 0-34.878 13.049-66.703 34.533-90.866l-0.123 0.14c15.779-16.231 37.82-26.302 62.216-26.302 1.018 0 2.028 0.016 3.036 0.052l-0.148-0.004c0.004 0 0.009 0 0.014 0 29.881 0 57.179 11.068 78.015 29.331l-0.136-0.118c29.68 31.524 51.186 71.067 60.931 115.033l0.304 1.636c15.483 46.77 24.967 100.675 26.168 156.624l0.011 0.602c0.179 2.296 0.283 4.975 0.283 7.675 0 27.791-10.839 53.051-28.52 71.784l0.047-0.050c-16.968 16.594-40.211 26.833-65.845 26.833-0.46 0-0.919-0.004-1.378-0.011l0.068 0.001c-0.524 0.009-1.141 0.014-1.758 0.014-28.931 0-55.502-10.119-76.36-27.015l0.229 0.177c-33.044-29.481-57.104-68.387-67.976-112.487l-0.317-1.523c-13.819-42.597-22.177-91.668-23.024-142.565l-0.006-0.43z" />
<glyph unicode="&#xe3;" glyph-name="Is" d="M994.97 613.686l-52.961-59.759c8.557-32.489 13.47-69.788 13.47-108.234 0-243.871-197.696-441.567-441.567-441.567s-441.567 197.696-441.567 441.567c0 243.871 197.696 441.567 441.567 441.567 94.081 0 181.29-29.422 252.928-79.568l-1.423 0.944 45.21 50.989c-82.838 60.081-186.525 96.108-298.627 96.108-282.77 0-512-229.231-512-512s229.231-512 512-512c282.77 0 512 229.231 512 512 0 60.91-10.636 119.337-30.152 173.523l1.122-3.569zM273.404 610.354l-107.315-115.609 346.829-334.829 472.807 530.084-123.36 142.838-376.947-427.188-212.014 204.705z" />
<glyph unicode="&#xe4;" glyph-name="Clusters" d="M186.182 862.642c0-51.413-41.678-93.091-93.091-93.091s-93.091 41.678-93.091 93.091c0 51.413 41.678 93.091 93.091 93.091v0c51.413 0 93.091-41.678 93.091-93.091v0zM465.455 583.369c0-51.413-41.678-93.091-93.091-93.091s-93.091 41.678-93.091 93.091c0 51.413 41.678 93.091 93.091 93.091v0c51.413 0 93.091-41.678 93.091-93.091v0zM465.455 862.642c0-51.413-41.678-93.091-93.091-93.091s-93.091 41.678-93.091 93.091c0 51.413 41.678 93.091 93.091 93.091v0c51.413 0 93.091-41.678 93.091-93.091v0zM744.727 583.369c0-51.413-41.678-93.091-93.091-93.091s-93.091 41.678-93.091 93.091c0 51.413 41.678 93.091 93.091 93.091v0c51.413 0 93.091-41.678 93.091-93.091v0zM744.727 862.642c0-51.413-41.678-93.091-93.091-93.091s-93.091 41.678-93.091 93.091c0 51.413 41.678 93.091 93.091 93.091v0c51.413 0 93.091-41.678 93.091-93.091v0zM744.727 304.097c0-51.413-41.678-93.091-93.091-93.091s-93.091 41.678-93.091 93.091c0 51.413 41.678 93.091 93.091 93.091v0c51.413 0 93.091-41.678 93.091-93.091v0zM1024 583.369c0-51.413-41.678-93.091-93.091-93.091s-93.091 41.678-93.091 93.091c0 51.413 41.678 93.091 93.091 93.091v0c51.413 0 93.091-41.678 93.091-93.091v0zM1024 24.824c0-51.413-41.678-93.091-93.091-93.091s-93.091 41.678-93.091 93.091c0 51.413 41.678 93.091 93.091 93.091v0c51.413 0 93.091-41.678 93.091-93.091v0zM1024 862.642c0-51.413-41.678-93.091-93.091-93.091s-93.091 41.678-93.091 93.091c0 51.413 41.678 93.091 93.091 93.091v0c51.413 0 93.091-41.678 93.091-93.091v0zM1024 304.097c0-51.413-41.678-93.091-93.091-93.091s-93.091 41.678-93.091 93.091c0 51.413 41.678 93.091 93.091 93.091v0c51.413 0 93.091-41.678 93.091-93.091v0z" />
</font>
</defs>
</svg>
